<svg id="svg2" width="324" height="292" viewBox="0 0 324 292" fill="none" xmlns="http://www.w3.org/2000/svg">
<path class="leaf2" fill-rule="evenodd" clip-rule="evenodd" d="M82.6697 228.262C89.475 224.424 95.2636 219.074 100.49 212.864C111.735 199.51 120.36 182.16 130.988 167.505C134.222 163.034 137.623 158.834 141.114 154.792C148.317 146.448 155.953 138.817 163.465 130.994C170.95 123.2 178.297 115.208 185.063 106.242C186.049 104.932 187.006 103.589 187.944 102.222C191.616 96.8702 194.999 91.1789 198.776 85.955C203.669 79.1844 209.077 73.169 214.166 66.6839C215.436 65.0645 216.688 63.4159 217.907 61.7199C221.671 56.4857 228.766 45.9935 235.097 37.8115C238.182 33.8258 241.081 30.3903 243.316 28.4019C243.586 28.1637 243.612 27.7509 243.374 27.4804C243.135 27.2099 242.723 27.184 242.452 27.4218C240.151 29.4245 237.152 32.8912 233.961 36.9215C227.527 45.0448 220.297 55.4705 216.464 60.6702C215.239 62.3298 213.984 63.9415 212.709 65.5252C207.521 71.9704 202.027 77.946 197.036 84.6812C193.189 89.8762 189.726 95.539 185.99 100.867C185.059 102.196 184.112 103.504 183.135 104.777C177.228 112.496 170.85 119.441 164.391 126.221C157.799 133.143 151.109 139.882 144.658 147.005C139.23 153.002 133.988 159.28 129.113 166.164C118.693 180.93 110.315 198.368 99.2603 211.842C94.2241 217.98 88.6316 223.292 82.0214 227.13C81.7087 227.309 81.5999 227.707 81.779 228.02C81.958 228.333 82.3571 228.441 82.6697 228.262Z" fill="#613909"/>
<path class="leaf2"  fill-rule="evenodd" clip-rule="evenodd" d="M133.462 200.621C131.559 200.989 129.712 201.472 127.836 201.794C126.612 202.005 125.382 202.143 124.13 202.164C121.69 202.149 119.468 202.004 117.334 201.886C114.976 201.756 112.726 201.7 110.377 202.1C109.191 202.301 107.986 202.611 106.722 203.065C105.126 203.638 103.454 204.444 101.644 205.591C101.141 205.951 101.024 206.651 101.384 207.154C101.743 207.656 102.443 207.774 102.947 207.414C104.207 206.402 105.394 205.588 106.568 204.969C107.966 204.23 109.311 203.734 110.643 203.426C112.86 202.912 115.023 202.857 117.276 202.971C119.424 203.081 121.649 203.369 124.102 203.461C125.093 203.518 126.074 203.489 127.055 203.439C129.284 203.324 131.496 203.022 133.762 202.841C134.375 202.759 134.805 202.194 134.722 201.582C134.64 200.969 134.075 200.538 133.462 200.621Z" fill="#613909"/>
<path class="leaf2"  fill-rule="evenodd" clip-rule="evenodd" d="M103.491 145.004C103.157 146.86 102.5 149.46 102.276 151.787C102.165 152.938 102.15 154.025 102.324 154.943C103.275 160.214 105.789 164.501 107.294 169.429C107.651 170.595 107.939 171.8 108.142 173.062C108.446 175.055 108.584 177.336 108.551 179.778C108.507 182.974 108.2 186.444 107.697 189.9C106.822 195.91 105.358 201.871 103.862 206.349C103.681 206.941 104.014 207.568 104.605 207.749C105.197 207.93 105.823 207.597 106.004 207.005C107.294 202.372 108.4 196.223 109.058 190.072C109.435 186.55 109.669 183.029 109.669 179.786C109.668 177.279 109.548 174.94 109.23 172.894C108.478 167.571 106.104 163.22 104.723 158.301C104.394 157.132 104.137 155.93 103.962 154.677C103.821 153.646 103.975 152.389 104.234 151.092C104.632 149.093 105.3 147.021 105.682 145.47C105.811 144.865 105.425 144.27 104.819 144.142C104.215 144.012 103.619 144.399 103.491 145.004Z" fill="#613909"/>
<path class="leaf2"  fill-rule="evenodd" clip-rule="evenodd" d="M95.1638 171.671C95.6983 173.407 96.4025 174.812 97.1938 176.069C98.3989 177.981 99.8151 179.507 101.149 181.237C101.957 182.286 102.711 183.424 103.367 184.762C104.154 186.5 104.647 188.365 104.884 190.32C105.056 191.737 105.092 193.197 105.043 194.684C104.995 196.129 104.843 197.589 104.666 199.069C104.63 199.685 105.102 200.215 105.719 200.252C106.336 200.289 106.867 199.817 106.903 199.199C106.902 197.345 106.83 195.523 106.671 193.744C106.561 192.508 106.41 191.3 106.193 190.119C105.815 188.065 105.254 186.102 104.348 184.294C103.69 182.873 102.898 181.68 102.105 180.538C100.895 178.797 99.6267 177.215 98.6489 175.251C98.0603 174.069 97.6223 172.738 97.3427 171.146C97.198 170.546 96.5924 170.176 95.9911 170.319C95.3901 170.464 95.0195 171.07 95.1638 171.671Z" fill="#613909"/>
<path class="leaf2"  fill-rule="evenodd" clip-rule="evenodd" d="M113.52 114.57C112.829 117.217 112.219 119.995 111.961 122.759C111.783 124.659 111.762 126.55 112.014 128.389C112.231 130.035 112.582 131.608 112.992 133.148C113.612 135.479 114.373 137.73 115.066 140.017C115.892 142.839 116.835 145.776 117.685 148.814C118.89 153.119 119.962 157.615 120.497 162.19C121.072 167.112 120.985 172.121 119.811 177.084C119.684 177.69 120.072 178.284 120.678 178.411C121.283 178.538 121.877 178.149 122.004 177.544C122.959 172.312 122.728 167.099 121.931 161.994C121.21 157.381 120.01 152.862 118.745 148.512C117.863 145.481 116.978 142.525 116.165 139.698C115.531 137.41 114.812 135.163 114.265 132.828C113.915 131.337 113.642 129.812 113.491 128.221C113.337 126.495 113.43 124.731 113.691 122.969C114.083 120.328 114.852 117.701 115.67 115.202C115.844 114.609 115.504 113.986 114.911 113.812C114.318 113.637 113.694 113.977 113.52 114.57Z" fill="#613909"/>
<path class="leaf2"  fill-rule="evenodd" clip-rule="evenodd" d="M137.323 78.4266C136.503 80.3879 135.609 82.3471 134.807 84.3511C134.266 85.7034 133.765 87.0733 133.363 88.4799C131.924 93.4144 131.113 98.6697 130.667 103.989C130.339 107.904 130.213 111.853 130.206 115.737C130.199 119.756 130.306 123.705 130.477 127.468C130.736 134.94 131.72 142.945 131.206 150.829C130.877 155.892 129.906 160.893 127.782 165.661C127.541 166.231 127.808 166.888 128.378 167.128C128.948 167.368 129.606 167.101 129.846 166.531C131.864 161.467 132.637 156.205 132.818 150.909C133.091 142.962 132.01 134.931 131.589 127.417C131.42 123.673 131.285 119.743 131.324 115.743C131.36 111.895 131.544 107.982 131.957 104.112C132.513 98.9104 133.498 93.7912 135.053 89.0004C135.492 87.672 136.022 86.3811 136.595 85.112C137.479 83.1538 138.464 81.2507 139.37 79.339C139.621 78.7743 139.367 78.1114 138.803 77.8596C138.238 77.6077 137.575 77.8619 137.323 78.4266Z" fill="#613909"/>
<path class="leaf2"  fill-rule="evenodd" clip-rule="evenodd" d="M164.021 47.8707C161.918 50.0256 159.341 51.4174 157.287 53.6373C156.413 54.5814 155.624 55.6611 154.996 56.9931C152.977 61.2388 152.171 65.631 151.943 70.0734C151.603 76.6934 152.566 83.4267 152.781 89.9147C152.942 96.7742 152.724 103.704 152.154 110.643C151.589 117.517 150.676 124.397 149.613 131.242C149.073 134.601 148.584 137.184 147.824 139.676C147.068 142.155 146.039 144.537 144.446 147.519C144.165 148.069 144.384 148.744 144.934 149.026C145.485 149.307 146.161 149.089 146.442 148.537C147.992 145.356 148.963 142.823 149.665 140.203C150.358 137.616 150.791 134.947 151.237 131.477C152.161 124.579 152.873 117.647 153.352 110.734C153.837 103.749 154.083 96.784 153.89 89.886C153.771 83.4369 152.867 76.7293 153.344 70.1602C153.65 65.9318 154.546 61.766 156.581 57.7737C157.371 56.2365 158.403 55.108 159.53 54.1421C161.481 52.4683 163.704 51.2582 165.594 49.467C166.034 49.033 166.039 48.3231 165.606 47.8825C165.171 47.4425 164.462 47.4372 164.021 47.8707Z" fill="#613909"/>
<path class="leaf2"  fill-rule="evenodd" clip-rule="evenodd" d="M161.862 187.555C158.05 187.769 154.285 187.45 150.484 187.511C149.52 187.527 148.554 187.555 147.583 187.634C145.043 187.811 142.462 188.71 139.914 188.974C138.857 189.084 137.806 189.075 136.772 188.854C131.699 187.667 128.188 183.331 123.465 182.552C121.494 182.226 119.329 182.46 116.766 183.698C116.221 183.989 116.014 184.668 116.305 185.214C116.596 185.759 117.275 185.966 117.821 185.675C120.638 184.032 122.962 183.975 125.115 184.669C128.928 185.896 132.212 189.107 136.543 189.934C137.689 190.175 138.85 190.173 140.021 190.063C142.552 189.826 145.134 189.024 147.658 188.907C149.073 188.859 150.476 188.894 151.874 188.991C155.222 189.222 158.528 189.731 161.906 189.796C162.524 189.784 163.016 189.271 163.004 188.654C162.992 188.036 162.481 187.543 161.862 187.555Z" fill="#613909"/>
<path class="leaf2"  fill-rule="evenodd" clip-rule="evenodd" d="M188.747 165.535C187.463 167.249 186.032 168.674 184.465 169.825C181.919 171.694 179.063 172.884 176.083 173.555C172.259 174.419 168.234 174.463 164.391 174.037C160.171 173.569 156.171 172.517 152.845 171.471C148.329 169.98 143.809 167.846 139.147 166.505C135.925 165.576 132.639 165.026 129.216 165.324C128.602 165.395 128.161 165.951 128.232 166.566C128.303 167.18 128.86 167.621 129.474 167.549C132.623 167.094 135.697 167.418 138.717 168.139C143.406 169.26 147.955 171.277 152.492 172.603C155.886 173.648 159.972 174.625 164.264 175.14C168.236 175.616 172.381 175.672 176.367 174.926C181.614 173.943 186.575 171.582 190.497 166.934C190.883 166.451 190.804 165.745 190.322 165.358C189.839 164.972 189.133 165.051 188.747 165.535Z" fill="#613909"/>
<path class="leaf2"  fill-rule="evenodd" clip-rule="evenodd" d="M77.2329 233.494C78.2382 233.127 79.1803 232.688 80.1291 232.205C81.0491 231.737 81.9485 231.236 82.8409 230.677C83.4868 230.272 84.1292 229.847 84.7748 229.402C85.3997 228.972 86.0286 228.529 86.6567 228.053C87.1445 227.683 87.6253 227.3 88.1185 226.903C88.8344 226.329 89.5461 225.742 90.2628 225.09C90.6686 224.623 90.6191 223.915 90.1525 223.51C89.6856 223.104 88.9772 223.154 88.5716 223.621C87.839 224.675 87.1299 225.662 86.3133 226.529C85.4422 227.452 84.5204 228.267 83.5316 228.933C82.4962 229.629 81.3933 230.164 80.2581 230.566C79.1096 230.972 77.9294 231.167 76.7159 231.314C76.1145 231.457 75.7414 232.06 75.8843 232.662C76.0267 233.265 76.6309 233.636 77.2329 233.494Z" fill="#613909"/>
<path class="leaf2"  fill-rule="evenodd" clip-rule="evenodd" d="M79.2564 231.035C80.3978 230.175 81.4832 229.265 82.6284 228.384C83.7468 227.523 84.8748 226.666 86.0356 225.838C87.1855 225.019 88.3644 224.237 89.5565 223.46C90.75 222.682 91.9649 221.968 93.1733 221.2C93.661 220.82 93.7479 220.115 93.3675 219.628C92.9876 219.139 92.283 219.053 91.7953 219.433C90.7638 220.412 89.7696 221.398 88.7007 222.324C87.6332 223.248 86.5433 224.138 85.4043 224.955C84.2574 225.779 83.0674 226.528 81.8541 227.221C80.6224 227.927 79.3591 228.513 78.0929 229.119C77.5647 229.44 77.3961 230.13 77.7169 230.659C78.0383 231.187 78.7274 231.355 79.2564 231.035Z" fill="#613909"/>
<path class="leaf2"  fill-rule="evenodd" clip-rule="evenodd" d="M182.336 42.9113C178.762 48.7321 175.699 54.0467 173.388 59.7555C171.152 65.2848 169.61 71.1856 169.166 78.3471C168.802 83.1912 168.972 88.7804 169.089 94.5811C169.198 99.9202 169.278 105.44 168.964 110.709C168.676 115.513 168.032 120.101 166.79 124.145C166.62 124.74 166.966 125.36 167.561 125.529C168.156 125.698 168.776 125.353 168.946 124.758C170.051 120.523 170.486 115.755 170.61 110.779C170.744 105.467 170.501 99.9187 170.301 94.5463C170.088 88.7891 169.94 83.2378 170.266 78.4255C170.831 71.4305 172.379 65.6607 174.729 60.3211C177.171 54.7724 180.468 49.7022 184.221 44.1229C184.555 43.603 184.404 42.9094 183.884 42.5749C183.364 42.2404 182.67 42.3908 182.336 42.9113Z" fill="#613909"/>
<path class="leaf2"  fill-rule="evenodd" clip-rule="evenodd" d="M225.405 30.8067C223.08 30.8872 221.014 31.8357 219.235 33.471C217.16 35.3789 215.451 38.2065 214.271 41.584C213.102 44.7183 212.401 47.8092 211.818 50.854C211.363 53.223 210.983 55.5652 210.588 57.8947C210.194 60.2234 209.771 62.5336 209.202 64.833C208.742 66.693 208.167 68.5336 207.45 70.3761C207.249 70.9614 207.562 71.5988 208.146 71.7995C208.731 72.0002 209.368 71.6879 209.57 71.1032C210.614 67.6431 211.128 64.2049 211.577 60.7472C212.018 57.3491 212.36 53.9322 213.011 50.4775C213.539 47.6816 214.306 44.8719 215.412 42.018C216.666 38.9669 218.323 36.3963 220.353 34.7748C221.847 33.5803 223.546 32.9547 225.387 33.0472C226.004 33.0527 226.511 32.5545 226.516 31.9361C226.522 31.3175 226.024 30.8119 225.405 30.8067Z" fill="#613909"/>
<path class="leaf2"  fill-rule="evenodd" clip-rule="evenodd" d="M232.962 32.7399C231.924 33.4705 231.038 34.3261 230.251 35.3003C229.508 36.2202 228.859 37.2256 228.269 38.3072C227.507 39.7013 226.856 41.2131 226.233 42.7821C225.838 43.7756 225.443 44.7858 225.053 45.8032C224.571 47.0579 224.091 48.3172 223.584 49.5533C223.07 50.8049 222.513 52.0086 221.936 53.1715C221.705 53.7453 221.983 54.3986 222.558 54.6292C223.13 54.8606 223.784 54.5821 224.014 54.0085C224.428 52.7005 224.775 51.3428 225.145 49.9603C225.383 49.0746 225.626 48.1868 225.886 47.2994C226.207 46.1969 226.537 45.0993 226.924 44.0348C227.316 42.9524 227.757 41.9021 228.26 40.9114C228.952 39.545 229.76 38.2898 230.717 37.2156C231.672 36.1421 232.804 35.3032 234.098 34.6708C234.631 34.3573 234.809 33.6703 234.496 33.1371C234.182 32.604 233.495 32.4259 232.962 32.7399Z" fill="#613909"/>
<path class="leaf2"  fill-rule="evenodd" clip-rule="evenodd" d="M238.476 40.7581C237.817 41.3744 237.166 41.9789 236.481 42.5566C235.445 43.4318 234.39 44.2671 233.303 45.0694C232.029 46.0097 230.731 46.914 229.417 47.8015C228.54 48.3945 227.651 48.9685 226.763 49.5507C225.652 50.2797 224.547 51.0159 223.441 51.7772C222.338 52.537 221.242 53.3027 220.166 54.1439C219.71 54.5617 219.68 55.2705 220.097 55.7265C220.515 56.1823 221.224 56.2134 221.68 55.7956C222.71 54.6953 223.75 53.6474 224.861 52.6764C225.996 51.6846 227.168 50.7587 228.372 49.8767C229.284 49.209 230.214 48.5711 231.155 47.9524C232.102 47.3306 233.062 46.7316 234.025 46.1361C234.995 45.5372 235.964 44.9484 236.939 44.3502C237.917 43.7489 238.892 43.1575 239.86 42.5203C240.346 42.1381 240.43 41.4338 240.049 40.9474C239.667 40.4609 238.962 40.3763 238.476 40.7581Z" fill="#613909"/>
<path class="leaf2"  fill-rule="evenodd" clip-rule="evenodd" d="M237.356 58.051C236.538 59.2618 235.457 60.0974 234.234 60.6265C232.072 61.5606 229.6 61.6641 227.675 61.7111C226.212 61.7034 224.796 61.7173 223.406 61.7625C221.203 61.8341 219.082 62.0648 216.948 62.7448C214.828 63.4194 212.705 64.5117 210.502 66.3633C210.051 66.7871 210.029 67.4963 210.453 67.947C210.878 68.397 211.587 68.4185 212.037 67.9947C213.094 66.8694 214.133 65.9649 215.213 65.271C216.469 64.4649 217.741 63.9135 219.041 63.5459C220.425 63.1548 221.834 62.9532 223.28 62.8707C224.703 62.7894 226.16 62.8361 227.662 62.8609C229.741 62.9594 232.388 62.9431 234.812 62.1704C236.417 61.6591 237.907 60.8089 239.13 59.4222C239.507 58.9332 239.418 58.2285 238.929 57.8503C238.439 57.4722 237.735 57.5622 237.356 58.051Z" fill="#613909"/>
<path class="leaf2"  fill-rule="evenodd" clip-rule="evenodd" d="M234.528 70.6398C233.668 71.9926 232.74 73.2736 231.728 74.4584C230.14 76.3135 228.388 77.9554 226.535 79.3535C224.901 80.5874 223.189 81.6344 221.451 82.4758C219.59 83.3766 217.694 84.0342 215.835 84.4628C213.755 84.9063 211.609 85.1712 209.438 85.4026C206.179 85.7492 202.878 86.0686 199.651 86.9607C197.379 87.5895 195.148 88.4898 192.992 89.8838C192.486 90.2391 192.363 90.9386 192.719 91.4445C193.074 91.9505 193.774 92.0728 194.281 91.7173C196.811 89.7978 199.527 88.6638 202.328 87.9311C204.572 87.3439 206.859 86.9998 209.128 86.6794C211.483 86.3462 213.82 86.0533 216.074 85.5235C218.013 85.1019 219.985 84.4189 221.945 83.5287C223.772 82.6983 225.58 81.6715 227.341 80.4781C230.652 78.2341 233.773 75.3784 236.366 71.9206C236.72 71.4131 236.595 70.714 236.088 70.3609C235.58 70.0075 234.881 70.1325 234.528 70.6398Z" fill="#613909"/>
<path class="leaf2"  fill-rule="evenodd" clip-rule="evenodd" d="M231.161 88.9163C229.439 91.9354 227.471 93.8196 225.307 95.0616C221.373 97.3184 216.903 97.5869 212.457 98.969C210.182 99.6522 207.957 100.486 205.745 101.38C203.202 102.408 200.682 103.532 198.143 104.654C195.644 105.757 193.123 106.846 190.559 107.867C186.748 109.349 182.788 110.521 179.115 112.651C176.796 113.997 174.594 115.718 172.612 118.141C172.234 118.63 172.325 119.334 172.814 119.712C173.304 120.09 174.007 120 174.385 119.51C176.07 117.197 177.986 115.502 180.046 114.172C183.536 111.92 187.386 110.667 191.055 109.074C195.448 107.228 199.678 105.116 203.983 103.294C206.873 102.071 209.8 100.993 212.799 100.143C217.414 98.8894 221.981 98.6981 226.126 96.5715C228.614 95.2954 230.955 93.3474 233.075 90.0813C233.397 89.553 233.229 88.863 232.7 88.5417C232.172 88.2201 231.482 88.3881 231.161 88.9163Z" fill="#613909"/>
<path class="leaf2"  fill-rule="evenodd" clip-rule="evenodd" d="M170.041 47.4681C169.575 49.9275 169.29 52.2375 169.08 54.4588C168.849 56.8894 168.736 59.2015 168.707 61.471C168.683 63.2391 168.704 64.9769 168.743 66.7182C168.782 68.451 168.834 70.1846 168.897 71.9501C168.947 73.3201 168.999 74.7052 169.034 76.125C169.084 78.1346 169.096 80.1986 169.088 82.3698C169.118 82.9872 169.643 83.4647 170.26 83.4355C170.877 83.4067 171.356 82.8814 171.326 82.2639C171.112 80.0891 170.855 78.027 170.632 76.0166C170.476 74.6072 170.335 73.2302 170.211 71.8672C170.053 70.1206 169.916 68.4031 169.848 66.6837C169.78 64.966 169.774 63.2473 169.851 61.5043C169.95 59.2819 170.179 57.0189 170.591 54.6628C170.965 52.5262 171.521 50.3304 172.218 47.9988C172.365 47.3978 171.995 46.7914 171.395 46.6449C170.795 46.4984 170.187 46.8676 170.041 47.4681Z" fill="#613909"/>
<path class="leaf2"  fill-rule="evenodd" clip-rule="evenodd" d="M212.787 31.6085C211.307 32.7996 209.865 34.0839 208.489 35.488C207.164 36.84 205.897 38.297 204.728 39.8988C201.955 43.6491 199.798 47.9853 198.013 52.6326C196.67 56.1284 195.544 59.8019 194.544 63.5416C193.562 67.2144 192.703 70.9503 191.884 74.64C190.596 80.4369 189.423 86.1225 188.064 91.2628C186.421 97.4856 184.497 102.887 181.787 106.675C181.438 107.185 181.569 107.884 182.079 108.232C182.589 108.582 183.287 108.451 183.636 107.94C186.005 104.313 187.655 99.3825 189.05 93.7188C190.164 89.202 191.12 84.2152 192.147 79.0607C192.786 75.8559 193.454 72.5866 194.218 69.3306C194.973 66.0999 195.824 62.8831 196.808 59.7527C197.89 56.3223 199.136 52.9977 200.618 49.8793C202.16 46.6343 203.969 43.6228 206.09 40.9394C207.271 39.4607 208.534 38.1193 209.855 36.8902C211.232 35.6088 212.677 34.4562 214.148 33.3882C214.639 33.0126 214.733 32.3085 214.356 31.8175C213.98 31.3265 213.277 31.2326 212.787 31.6085Z" fill="#613909"/>
<path class="leaf2"  fill-rule="evenodd" clip-rule="evenodd" d="M220.089 122.233C216.702 124.822 213.224 126.115 209.684 126.657C206.787 127.102 203.857 127.064 200.929 126.874C197.957 126.682 194.986 126.314 192.034 126.149C187.078 125.781 181.999 125.958 176.9 126.578C171.933 127.181 166.945 128.207 162.041 129.792C161.459 129.998 161.152 130.638 161.358 131.221C161.564 131.804 162.205 132.11 162.788 131.904C167.484 130.099 172.276 128.757 177.098 127.983C182.086 127.182 187.085 126.98 191.966 127.233C194.911 127.439 197.874 127.815 200.834 128.081C203.854 128.354 206.869 128.49 209.88 128.175C213.733 127.77 217.571 126.63 221.396 124.054C221.898 123.694 222.013 122.993 221.652 122.491C221.293 121.989 220.591 121.874 220.089 122.233Z" fill="#613909"/>
<path class="leaf2"  fill-rule="evenodd" clip-rule="evenodd" d="M199.072 146.882C197.05 148.643 194.801 150.537 192.494 152.103C190.887 153.192 189.257 154.122 187.675 154.749C184.809 155.854 181.329 156.371 177.733 156.465C175.169 156.532 172.547 156.392 170.049 156.115C167.289 155.809 164.68 155.326 162.456 154.823C158.802 153.954 153.067 152.118 148.013 151.329C145.545 150.944 143.234 150.811 141.357 151.142C140.752 151.268 140.363 151.862 140.489 152.468C140.616 153.073 141.21 153.461 141.815 153.335C143.979 152.816 146.847 152.97 149.832 153.419C154.315 154.093 159.037 155.41 162.196 156.028C164.464 156.497 167.126 156.906 169.933 157.201C172.477 157.468 175.141 157.632 177.752 157.61C181.506 157.576 185.151 157.165 188.173 156.097C189.88 155.513 191.649 154.603 193.413 153.542C195.869 152.068 198.305 150.293 200.49 148.617C200.969 148.225 201.04 147.52 200.649 147.04C200.257 146.562 199.552 146.492 199.072 146.882Z" fill="#613909"/>
<path class="leaf2"  fill-rule="evenodd" clip-rule="evenodd" d="M197.592 39.3763C195.418 44.1202 194.18 48.4418 193.348 52.6946C192.064 59.2651 191.792 65.6706 190.839 73.2596C190.317 77.0613 189.812 80.8667 189.153 84.5899C188.131 90.3725 186.799 95.9678 184.763 101.072C182.414 106.956 179.098 112.164 174.236 116.261C173.772 116.669 173.726 117.378 174.133 117.842C174.542 118.307 175.251 118.353 175.715 117.944C180.636 113.444 183.858 107.84 186.132 101.594C188.039 96.3525 189.267 90.6571 190.248 84.7781C190.874 81.0371 191.425 77.2271 191.955 73.4137C193.083 65.8937 193.434 59.5174 194.934 53.033C195.88 48.9527 197.304 44.8417 199.609 40.3553C199.879 39.7991 199.647 39.1285 199.09 38.8584C198.534 38.5881 197.863 38.8201 197.592 39.3763Z" fill="#613909"/>
<path class="leaf2"  fill-rule="evenodd" clip-rule="evenodd" d="M81.9107 228.549C87.0024 224.329 91.7653 219.974 96.2218 215.105C100.481 210.453 104.453 205.333 108.185 199.444C110.22 196.161 112.162 192.76 114.055 189.329C115.928 185.932 117.758 182.509 119.704 179.206C120.685 177.541 121.686 175.9 122.733 174.309C123.659 172.9 124.704 171.613 125.811 170.394C128.538 167.388 131.622 164.781 134.258 161.83C136.936 158.837 139.228 155.342 141.797 152.224C142.437 151.448 143.094 150.696 143.779 149.983C144.032 149.726 144.029 149.313 143.773 149.059C143.516 148.807 143.103 148.808 142.85 149.065C142.121 149.784 141.421 150.543 140.738 151.325C138.098 154.349 135.721 157.754 132.975 160.648C130.248 163.517 127.078 166.023 124.263 168.947C123.042 170.214 121.89 171.56 120.857 173.037C119.196 175.423 117.622 177.91 116.108 180.457C114.377 183.369 112.704 186.347 111.048 189.324C109.397 192.292 107.773 195.264 106.039 198.128C102.551 204.004 98.795 209.124 94.7644 213.81C90.5101 218.758 85.9546 223.223 81.0613 227.556C80.7876 227.791 80.7558 228.203 80.9905 228.478C81.225 228.752 81.6375 228.783 81.9107 228.549Z" fill="#613909"/>
<path class="leaf2"  fill-rule="evenodd" clip-rule="evenodd" d="M126.636 168.311C123.823 171.188 121.609 174.383 119.626 177.761C116.765 182.635 114.402 187.893 111.415 193.119C110.687 194.416 109.904 195.658 109.108 196.882C107.193 199.832 105.159 202.648 103.251 205.598C99.171 212.158 95.2265 218.609 90.5988 224.039C87.3354 227.867 83.7399 231.191 79.4957 233.666C79.1809 233.841 79.0684 234.239 79.2444 234.554C79.4201 234.869 79.818 234.98 80.1329 234.805C84.6173 232.404 88.4722 229.109 91.9864 225.264C96.8664 219.923 101.076 213.515 105.43 207.002C107.061 204.474 108.809 202.059 110.45 199.544C111.552 197.854 112.6 196.116 113.567 194.293C116.347 188.954 118.502 183.609 121.168 178.625C122.958 175.279 124.976 172.099 127.588 169.206C127.834 168.942 127.821 168.528 127.558 168.282C127.296 168.035 126.882 168.049 126.636 168.311Z" fill="#613909"/>
<path class="leaf2"  fill-rule="evenodd" clip-rule="evenodd" d="M240.251 30.1826C239.556 32.4909 238.559 36.1452 237.736 39.5443C237.064 42.3177 236.508 44.9238 236.313 46.5165C236.217 47.2979 236.204 48.0746 236.245 48.8491C236.393 51.5903 237.301 54.29 237.158 57.0803C237.09 58.4309 236.864 59.7883 236.562 61.1455C235.827 64.4426 234.648 67.7371 233.967 70.9218C233.791 71.7442 233.682 72.5783 233.617 73.4201C233.384 76.48 233.769 79.6494 233.279 82.7153C233.048 84.1504 232.63 85.4516 232.13 86.6888C230.794 89.9907 228.932 92.8788 228.169 96.4344C227.252 100.731 227.122 105.319 226.253 109.685C225.895 111.48 225.409 113.237 224.671 114.914C224.047 116.329 223.385 117.476 222.693 118.486C220.751 121.32 218.607 123.128 216.525 126.473C214.834 129.194 213.689 132.413 212.116 135.212C211.466 136.366 210.743 137.446 209.856 138.37C206.699 141.662 202.95 143.176 199.377 145.819C197.908 146.905 196.467 148.169 195.098 149.787C193.202 152.029 192.046 154.903 191.048 158.144C189.863 161.993 188.888 166.378 186.946 170.767C185.768 173.427 184.232 176.092 182.062 178.633C180.271 180.733 178.02 182.631 175.654 184.09C173.066 185.684 170.341 186.759 167.926 186.963C166.082 187.117 164.286 186.93 162.487 187.143C161.245 187.291 160.001 187.617 158.742 188.325C157.736 188.891 156.839 189.719 156.01 190.706C153.345 193.881 151.43 198.865 147.964 200.869C146.669 201.616 145.367 201.779 144.061 201.693C140.543 201.459 136.978 199.668 133.346 200.924C132.319 201.278 131.367 201.857 130.464 202.575C127.388 205.024 124.932 209.232 121.573 210.748C120.959 211.025 120.334 211.086 119.705 211.051C117.923 210.956 116.107 210.219 114.349 210.496C110.302 211.134 106.723 212.938 102.805 214.014C101.241 214.444 99.6223 214.753 97.8911 214.81C97.5305 214.821 97.247 215.121 97.2575 215.482C97.2684 215.842 97.5697 216.125 97.9297 216.114C99.7691 216.066 101.492 215.749 103.154 215.302C107.028 214.261 110.566 212.488 114.563 211.88C116.228 211.627 117.938 212.38 119.624 212.481C120.479 212.531 121.327 212.438 122.163 212.066C125.628 210.527 128.227 206.265 131.406 203.766C132.172 203.164 132.974 202.672 133.844 202.379C135.716 201.743 137.561 202.046 139.39 202.445C141.472 202.898 143.536 203.473 145.591 203.284C146.654 203.185 147.716 202.888 148.776 202.284C149.789 201.706 150.69 200.905 151.518 199.969C153.232 198.034 154.629 195.5 156.149 193.336C157.18 191.868 158.26 190.571 159.586 189.836C160.63 189.257 161.66 188.999 162.688 188.884C164.469 188.683 166.246 188.883 168.069 188.741C170.732 188.534 173.752 187.398 176.615 185.659C179.155 184.117 181.571 182.101 183.501 179.869C185.817 177.188 187.466 174.377 188.734 171.566C190.739 167.113 191.773 162.662 193.002 158.754C193.93 155.807 194.958 153.178 196.698 151.147C197.96 149.671 199.289 148.522 200.639 147.535C204.331 144.837 208.176 143.272 211.445 139.904C212.467 138.853 213.309 137.628 214.06 136.311C215.631 133.551 216.776 130.369 218.464 127.687C220.542 124.385 222.681 122.609 224.618 119.813C225.39 118.699 226.13 117.432 226.828 115.869C227.646 114.039 228.192 112.121 228.594 110.158C229.484 105.809 229.634 101.233 230.571 96.9535C231.315 93.5434 233.146 90.7924 234.439 87.628C235.014 86.2239 235.489 84.7457 235.756 83.1166C236.268 79.9848 235.903 76.7451 236.154 73.6184C236.211 72.8914 236.307 72.1705 236.462 71.4598C237.152 68.2839 238.345 65.0005 239.086 61.7111C239.425 60.2105 239.67 58.7085 239.749 57.2152C239.9 54.3345 238.994 51.542 238.847 48.7115C238.815 48.0891 238.822 47.4648 238.901 46.8363C239.09 45.3113 239.633 42.8173 240.28 40.1625C241.197 36.3996 242.329 32.3192 243.009 30.1675C243.146 29.7402 243.521 29.2614 243.895 28.76C244.372 28.1189 244.874 27.4661 245.196 26.8779C245.529 26.2715 245.687 25.6928 245.67 25.2022C245.642 24.4428 245.225 24.1371 244.913 23.9782C244.592 23.8144 244.119 23.7175 243.579 24.0187C243.377 24.1317 243.007 24.5497 242.797 24.6992C242.263 25.0802 241.733 25.4729 241.209 25.8834C240.688 26.2917 240.174 26.7172 239.671 27.1646C238.255 28.422 236.901 29.7868 235.433 30.8C234.514 31.4339 233.552 31.9266 232.48 32.1057C231.277 32.3069 230.104 32.0861 228.941 31.7024C225.745 30.6453 222.616 28.4954 219.397 28.2653C218.145 28.1751 216.786 28.5154 215.411 29.127C212.96 30.2164 210.41 32.187 208.328 33.3954C204.834 35.4231 201.222 36.9748 197.549 38.2639C188.602 41.4041 179.301 43.0053 170.468 46.0073C167.627 46.975 164.782 47.7791 161.993 48.9754C160.167 49.7586 158.364 50.7066 156.601 51.966C153.825 53.9485 151.524 56.5064 149.45 59.3461C144.986 65.4584 141.596 72.9104 136.419 78.3782C135.741 79.0942 134.983 79.6194 134.187 80.053C132.001 81.2447 129.564 81.8258 127.508 83.2901C125.781 84.52 124.209 86.39 122.816 88.542C120.967 91.3977 119.422 94.749 118.192 97.6399C116.109 102.538 115.179 107.869 113.404 112.882C112.974 114.1 112.492 115.298 111.927 116.465C110.46 119.498 108.123 121.337 106.433 123.91C105.692 125.039 105.065 126.297 104.657 127.82C103.185 133.321 104.137 139.007 103.61 144.435C103.482 145.755 103.262 147.06 102.886 148.34C101.452 153.216 98.2736 156.855 96.2141 161.281C95.3311 163.181 94.6439 165.218 94.3541 167.536C94.2785 168.138 94.2881 168.675 94.3462 169.177C94.4805 170.334 94.9046 171.285 95.0545 172.512C95.2185 173.858 94.36 175.292 94.2034 176.81C94.1578 177.252 94.1599 177.697 94.2344 178.148C94.4315 179.343 94.7903 180.395 95.2273 181.378C96.2266 183.623 97.6675 185.484 98.329 188.016C98.9086 190.236 98.9643 195.506 98.6281 200.821C98.3089 205.861 97.6353 210.943 96.6712 213.51C96.5434 213.847 96.7135 214.224 97.0504 214.352C97.3876 214.479 97.7647 214.309 97.8925 213.972C98.8995 211.332 99.6415 206.103 99.9971 200.913C100.374 195.412 100.311 189.957 99.7234 187.656C99.0545 185.04 97.5993 183.103 96.5803 180.781C96.1964 179.905 95.8796 178.971 95.7096 177.909C95.6593 177.592 95.6622 177.277 95.6959 176.969C95.8729 175.336 96.7372 173.781 96.568 172.331C96.4434 171.263 96.1149 170.399 95.9413 169.434C95.8489 168.921 95.8075 168.375 95.891 167.733C96.1707 165.588 96.8207 163.706 97.6472 161.953C99.7657 157.461 102.994 153.764 104.479 148.813C104.893 147.432 105.14 146.027 105.287 144.602C105.835 139.274 104.898 133.68 106.375 128.285C106.737 126.966 107.29 125.879 107.938 124.904C109.687 122.273 112.075 120.384 113.599 117.28C114.201 116.054 114.717 114.795 115.178 113.515C116.966 108.552 117.909 103.264 120.003 98.4155C121.207 95.6297 122.712 92.3971 124.513 89.6475C125.765 87.7376 127.155 86.062 128.7 84.9747C130.697 83.5702 133.069 83.046 135.19 81.9053C136.177 81.3748 137.114 80.7235 137.958 79.8428C143.223 74.3396 146.712 66.8341 151.26 60.675C153.201 58.0462 155.342 55.6692 157.932 53.84C159.559 52.6911 161.223 51.8305 162.905 51.1199C165.646 49.9619 168.439 49.1946 171.228 48.2616C180.085 45.2934 189.4 43.7274 198.372 40.6209C202.197 39.2963 205.959 37.695 209.602 35.6009C211.347 34.597 213.423 33.0409 215.488 31.951C216.778 31.2713 218.047 30.756 219.209 30.8427C222.228 31.0665 225.124 33.1812 228.12 34.179C229.691 34.7026 231.282 34.9581 232.91 34.6891C234.36 34.4482 235.678 33.8159 236.921 32.9595C238.071 32.1686 239.158 31.1802 240.251 30.1826Z" fill="#613909"/>
</svg>
