<svg id="svg3" width="284" height="284" viewBox="0 0 284 284" fill="none" xmlns="http://www.w3.org/2000/svg">
<path class="leaf3" fill-rule="evenodd" clip-rule="evenodd" d="M135.39 85.1244C138.211 88.1953 141.08 91.2572 144.156 93.823C146.743 95.9826 149.477 97.7919 152.433 98.9864C154.802 99.9425 157.278 100.62 159.678 100.719C161.424 100.79 163.133 100.56 164.739 99.9209C168.333 98.4914 171.336 95.9176 174.751 94.6466C176.788 93.8864 178.985 93.6254 181.591 94.4786C184.824 95.5362 187.636 97.4036 190.108 99.8379C193.558 103.234 196.349 107.724 198.692 112.684C200.138 115.746 203.347 119.647 205.484 123.322C206.446 124.979 207.19 126.583 207.4 128.037C207.88 131.393 207.423 134.281 206.469 136.883C204.829 141.358 201.752 145.007 199.396 148.739C198.983 149.392 198.658 150.101 198.389 150.844C197.409 153.551 197.213 156.743 195.902 159.228C195.301 160.368 194.574 161.4 193.788 162.384C191.884 164.768 189.65 166.876 187.979 169.476C187.824 169.716 187.893 170.038 188.134 170.193C188.375 170.349 188.696 170.281 188.852 170.04C190.519 167.482 192.746 165.416 194.646 163.073C195.481 162.041 196.255 160.955 196.897 159.757C198.247 157.238 198.488 153.999 199.503 151.252C199.747 150.593 200.039 149.963 200.411 149.384C202.84 145.596 205.984 141.886 207.69 137.334C208.735 134.55 209.247 131.454 208.759 127.848C208.541 126.241 207.758 124.453 206.71 122.617C204.623 118.962 201.466 115.085 200.058 112.046C197.669 106.889 194.801 102.228 191.253 98.6831C188.613 96.0476 185.595 94.0285 182.125 92.8668C179.093 91.8499 176.527 92.1325 174.145 93.0021C170.712 94.2541 167.685 96.8157 164.071 98.2272C162.359 98.8981 160.513 99.0117 158.642 98.775C156.803 98.5442 154.941 97.9747 153.143 97.2388C150.37 96.1041 147.817 94.3824 145.39 92.3475C141.891 89.4114 138.658 85.8223 135.457 82.3235C134.487 81.2675 132.528 78.5247 130.783 76.5854C129.722 75.4058 128.693 74.5267 127.973 74.2811C127.216 74.0228 126.874 74.4649 126.731 74.7164C126.627 74.9002 126.519 75.2098 126.683 75.6155C126.786 75.8712 127.448 76.6298 127.687 76.9948L129.621 79.9379L133.919 86.294C136.358 89.8129 138.941 93.2208 141.639 96.4829C144.387 99.8073 147.254 102.981 150.198 105.975C158.045 113.946 167.695 118.391 175.051 125.646C179.526 130.06 183.132 135.537 184.914 143.558C185.342 145.489 185.705 147.411 185.99 149.335C186.28 151.274 186.493 153.216 186.622 155.171C186.788 157.687 186.853 160.166 186.779 162.608C186.703 165.107 186.483 167.568 186.08 169.995C186.031 170.277 186.221 170.546 186.504 170.594C186.787 170.642 187.054 170.452 187.103 170.169C187.533 167.699 187.778 165.192 187.875 162.646C187.97 160.168 187.927 157.654 187.78 155.099C187.666 153.111 187.466 151.135 187.19 149.161C186.915 147.207 186.566 145.254 186.147 143.29C184.371 134.951 180.673 129.242 176.069 124.622C168.789 117.316 159.19 112.802 151.423 104.778C148.536 101.799 145.729 98.6398 143.033 95.3376C140.388 92.0987 137.852 88.7215 135.461 85.2312L135.39 85.1244Z" fill="#613909"/>
<path class="leaf3"  fill-rule="evenodd" clip-rule="evenodd" d="M188.546 170.309C189.766 162.177 190.476 152.43 188.603 143.417C188.106 141.022 187.42 138.679 186.511 136.438C185.133 133.045 183.24 129.892 180.777 127.105C178.564 124.622 176.208 122.569 173.752 120.795C169.866 117.987 165.737 115.88 161.557 113.861C161.3 113.733 160.987 113.837 160.859 114.093C160.73 114.349 160.835 114.662 161.092 114.79C164.486 116.551 167.844 118.369 171.044 120.597C174.032 122.681 176.877 125.128 179.48 128.227C181.752 130.911 183.433 133.944 184.712 137.161C185.566 139.307 186.238 141.539 186.757 143.82C188.764 152.618 188.458 162.165 187.516 170.171C187.478 170.456 187.678 170.717 187.962 170.755C188.246 170.793 188.508 170.593 188.546 170.309Z" fill="#613909"/>
<path class="leaf3"  fill-rule="evenodd" clip-rule="evenodd" d="M186.223 180.781C186.438 179.289 186.774 177.868 187.056 176.428C187.179 175.804 187.301 175.181 187.38 174.552C187.652 172.429 187.736 170.308 187.792 168.131C187.819 167.845 187.609 167.591 187.324 167.564C187.039 167.536 186.785 167.746 186.757 168.031C186.45 169.813 186.027 171.524 185.66 173.261C185.582 173.637 185.503 174.013 185.444 174.393C185.383 174.773 185.333 175.156 185.299 175.54C185.146 177.249 185.134 178.959 185.185 180.724C185.169 181.01 185.39 181.255 185.675 181.271C185.962 181.287 186.206 181.067 186.223 180.781Z" fill="#613909"/>
<path class="leaf3"  fill-rule="evenodd" clip-rule="evenodd" d="M185.917 180.422C185.773 178.199 185.693 175.264 185.103 172.619C184.678 170.711 183.981 168.955 182.845 167.677C181.5 166.166 179.939 165.189 178.514 163.894C177.969 163.398 177.446 162.852 176.969 162.2C175.73 160.506 174.951 159.019 173.912 157.787C173.128 156.857 172.204 156.066 170.879 155.424C167.08 153.588 163.006 153.196 159.383 151.275C157.375 150.211 155.514 148.646 153.936 146.006C152.841 144.187 152.108 142.324 151.554 140.434C150.19 135.764 149.937 130.908 148.586 126.001C148.278 124.891 147.849 123.87 147.34 122.908C145.392 119.225 142.21 116.455 140.7 112.381C138.02 105.169 137.177 96.6899 134.628 89.1177C133.499 85.7642 132.041 82.5845 129.956 79.7609C129.787 79.5295 129.463 79.4782 129.231 79.6473C128.999 79.8148 128.947 80.1391 129.116 80.3721C131.09 83.1323 132.45 86.2291 133.49 89.4912C135.925 97.1279 136.627 105.648 139.194 112.928C140.664 117.088 143.82 119.968 145.748 123.738C146.186 124.593 146.555 125.497 146.815 126.481C148.134 131.412 148.329 136.291 149.691 140.978C150.286 143.025 151.104 145.033 152.298 146.999C154.119 149.968 156.249 151.719 158.541 152.893C162.218 154.776 166.329 155.1 170.188 156.885C171.295 157.397 172.071 158.04 172.736 158.799C173.776 159.986 174.565 161.429 175.815 163.063C176.365 163.785 176.964 164.388 177.588 164.933C179.004 166.17 180.553 167.089 181.895 168.539C182.923 169.65 183.544 171.205 183.952 172.888C184.577 175.461 184.7 178.329 184.881 180.5C184.903 180.785 185.152 181 185.438 180.979C185.724 180.958 185.939 180.708 185.917 180.422Z" fill="#613909"/>
<path class="leaf3"  fill-rule="evenodd" clip-rule="evenodd" d="M201.886 145.383C201.136 146.153 200.361 146.874 199.549 147.554C198.724 148.247 197.875 148.903 197.018 149.547C196.152 150.197 195.282 150.838 194.419 151.49C193.553 152.144 192.695 152.81 191.864 153.522C190.465 154.717 189.138 156.03 187.978 157.638C187.796 157.913 187.872 158.284 188.146 158.466C188.422 158.649 188.792 158.574 188.975 158.298C189.618 157.23 190.322 156.264 191.104 155.389C191.925 154.469 192.81 153.64 193.737 152.867C194.445 152.277 195.176 151.721 195.919 151.182C196.668 150.64 197.43 150.117 198.191 149.591C198.955 149.063 199.72 148.535 200.474 147.986C201.232 147.435 201.978 146.87 202.703 146.256C202.944 146.031 202.956 145.653 202.731 145.412C202.505 145.17 202.127 145.158 201.886 145.383Z" fill="#613909"/>
<path class="leaf3"  fill-rule="evenodd" clip-rule="evenodd" d="M198.612 112.709C199.051 113.608 199.508 114.522 199.884 115.466C200.129 116.082 200.34 116.709 200.49 117.35C201.225 120.582 200.722 122.999 199.553 124.941C198.731 126.307 197.593 127.442 196.354 128.464C194.402 130.072 192.199 131.406 190.533 132.971C189.433 133.986 188.522 135.381 187.804 136.949C187.148 138.384 186.658 139.962 186.362 141.531C186.309 141.857 186.531 142.164 186.857 142.217C187.182 142.269 187.49 142.049 187.543 141.723C187.748 140.227 188.127 138.711 188.687 137.33C189.289 135.847 190.092 134.519 191.077 133.54C192.699 131.956 194.84 130.568 196.766 128.963C198.058 127.885 199.25 126.71 200.136 125.3C201.434 123.232 202.087 120.662 201.403 117.158C201.273 116.463 201.076 115.783 200.848 115.112C200.51 114.125 200.1 113.161 199.701 112.214C199.564 111.914 199.208 111.781 198.908 111.917C198.608 112.054 198.476 112.409 198.612 112.709Z" fill="#613909"/>
<path class="leaf3"  fill-rule="evenodd" clip-rule="evenodd" d="M169.349 156.851C171.443 157.335 173.728 157.483 175.965 157.853C177.05 158.032 178.122 158.266 179.149 158.609C180.172 158.951 181.153 159.402 182.049 160.02C183.148 160.776 184.125 161.783 184.912 163.14C185.545 164.23 186.037 165.55 186.397 167.141C186.481 167.46 186.81 167.651 187.128 167.566C187.447 167.482 187.638 167.154 187.552 166.835C187.044 165.165 186.393 163.808 185.65 162.683C184.718 161.274 183.63 160.239 182.428 159.455C181.466 158.828 180.435 158.36 179.359 157.99C178.306 157.627 177.212 157.357 176.104 157.122C174.797 156.846 173.474 156.618 172.187 156.347C171.318 156.163 170.472 155.951 169.658 155.696C169.338 155.611 169.011 155.801 168.926 156.119C168.84 156.438 169.03 156.766 169.349 156.851Z" fill="#613909"/>
<path class="leaf3"  fill-rule="evenodd" clip-rule="evenodd" d="M151.266 142.988C153.534 145.727 155.867 147.808 158.326 149.292C161.11 150.971 164.066 151.887 167.348 152.006C171.681 152.237 175.612 150.976 179.493 151.84C181.668 152.324 183.806 153.513 185.994 156.011C186.218 156.255 186.596 156.272 186.839 156.049C187.083 155.827 187.1 155.448 186.877 155.205C184.404 152.606 182.031 151.456 179.668 151.002C175.715 150.243 171.766 151.517 167.376 151.358C164.225 151.19 161.38 150.298 158.753 148.607C156.423 147.107 154.28 144.977 152.203 142.245C151.997 141.986 151.621 141.943 151.363 142.149C151.104 142.355 151.061 142.73 151.266 142.988Z" fill="#613909"/>
<path class="leaf3"  fill-rule="evenodd" clip-rule="evenodd" d="M144.657 121.084C147.032 123.363 149.496 125.883 152.101 127.934C153.979 129.411 155.928 130.648 157.989 131.364C158.941 131.699 159.887 131.918 160.829 132.077C163.044 132.454 165.244 132.489 167.476 132.888C171.318 133.61 175.529 134.957 179.214 137.43C182.473 139.616 185.308 142.687 187.137 146.917C187.274 147.217 187.628 147.351 187.928 147.216C188.23 147.081 188.363 146.726 188.228 146.425C186.184 142.062 183.114 138.962 179.659 136.752C175.834 134.302 171.532 132.941 167.591 132.252C165.36 131.841 163.16 131.8 160.947 131.403C160.046 131.241 159.143 131.015 158.234 130.682C156.268 129.952 154.412 128.729 152.646 127.261C150.12 125.161 147.777 122.567 145.5 120.235C145.265 120.004 144.886 120.005 144.654 120.239C144.422 120.474 144.424 120.853 144.657 121.084Z" fill="#613909"/>
<path class="leaf3"  fill-rule="evenodd" clip-rule="evenodd" d="M149.45 137.275C150.719 137.211 152.044 137.202 153.34 137.092C154.241 137.015 155.126 136.895 155.971 136.666C158.261 136.064 160.346 134.868 162.573 134.04C163.112 133.84 163.66 133.664 164.221 133.522C165.384 133.238 167.2 133.177 169.378 133.545C170.91 133.803 172.618 134.272 174.4 135.016C177.223 136.193 180.221 138.063 183.027 140.821C183.267 141.048 183.646 141.037 183.873 140.797C184.098 140.557 184.088 140.179 183.848 139.951C180.83 137.217 177.641 135.434 174.684 134.305C172.827 133.596 171.064 133.146 169.485 132.895C167.191 132.528 165.287 132.578 164.064 132.877C161.746 133.417 159.635 134.555 157.409 135.326C156.867 135.514 156.318 135.675 155.756 135.803C154.957 135.985 154.124 136.067 153.279 136.1C151.991 136.148 150.68 136.082 149.421 136.079C149.09 136.088 148.83 136.362 148.837 136.69C148.846 137.021 149.12 137.283 149.45 137.275Z" fill="#613909"/>
<path class="leaf3"  fill-rule="evenodd" clip-rule="evenodd" d="M136.899 104.477C138.737 107.799 140.889 109.743 143.212 110.958C145.662 112.237 148.316 112.684 151.038 113.018C152.785 113.233 154.556 113.42 156.308 113.74C157.728 114.013 159.253 114.56 160.77 115.278C162.923 116.297 165.053 117.653 166.882 118.973C167.154 119.159 167.526 119.091 167.713 118.819C167.901 118.547 167.831 118.174 167.558 117.987C165.622 116.724 163.366 115.458 161.12 114.499C159.515 113.813 157.916 113.279 156.431 113.04C154.664 112.74 152.876 112.598 151.118 112.378C148.487 112.047 145.914 111.579 143.586 110.267C141.445 109.06 139.536 107.114 137.959 103.922C137.806 103.63 137.444 103.517 137.152 103.669C136.859 103.822 136.746 104.185 136.899 104.477Z" fill="#613909"/>
<path class="leaf3"  fill-rule="evenodd" clip-rule="evenodd" d="M165.323 99.9732C166.251 99.8221 167.179 99.6853 168.125 99.6748C168.723 99.6679 169.329 99.7086 169.947 99.8301C173.297 100.509 175.576 102.758 177.234 105.725C178.61 108.189 179.568 111.14 180.352 114.118C180.876 116.105 181.31 118.107 181.76 119.986C182.564 123.444 183.529 126.89 184.278 130.363C184.776 132.673 185.172 134.994 185.388 137.333C185.425 137.66 185.721 137.897 186.049 137.862C186.377 137.825 186.614 137.529 186.577 137.202C186.271 134.83 185.769 132.486 185.192 130.152C184.34 126.696 183.319 123.264 182.438 119.819C181.97 117.942 181.497 115.945 180.974 113.955C180.178 110.92 179.235 107.909 177.877 105.374C176.148 102.141 173.75 99.6785 170.158 98.8512C169.475 98.6885 168.801 98.6156 168.135 98.5965C167.131 98.5685 166.143 98.6684 165.154 98.7888C164.828 98.8359 164.6 99.1391 164.647 99.465C164.693 99.792 164.996 100.019 165.323 99.9732Z" fill="#613909"/>
<path class="leaf3"  fill-rule="evenodd" clip-rule="evenodd" d="M179.23 93.5605C180.797 96.802 181.671 99.875 182.144 102.938C182.598 105.886 182.7 108.818 182.746 111.864C182.776 113.808 182.769 115.799 182.832 117.87C182.893 120.825 183.157 123.877 183.556 126.931C183.95 129.95 184.479 132.97 185.151 135.888C185.23 136.209 185.556 136.404 185.875 136.323C186.196 136.243 186.39 135.919 186.311 135.598C185.537 132.74 184.878 129.78 184.401 126.807C183.919 123.796 183.621 120.773 183.499 117.849C183.433 115.783 183.415 113.798 183.402 111.857C183.379 108.777 183.327 105.816 182.95 102.824C182.551 99.6584 181.802 96.4586 180.316 93.0613C180.178 92.7612 179.823 92.6302 179.523 92.7681C179.223 92.906 179.092 93.2615 179.23 93.5605Z" fill="#613909"/>
<path class="leaf3"  fill-rule="evenodd" clip-rule="evenodd" d="M149.045 97.6055C151.177 98.886 153.362 100.13 155.374 101.733C156.638 102.739 157.827 103.892 158.915 105.249C160.119 106.806 161.156 108.518 162.146 110.265C163.146 112.028 164.103 113.819 165.196 115.493C165.76 116.359 166.353 117.193 167.007 117.979C167.226 118.227 167.604 118.248 167.851 118.029C168.098 117.81 168.12 117.433 167.901 117.185C166.893 116.119 165.997 114.946 165.165 113.708C164.194 112.262 163.298 110.746 162.386 109.251C161.457 107.727 160.517 106.219 159.428 104.846C158.34 103.425 157.125 102.228 155.865 101.141C153.887 99.4355 151.776 98.0165 149.688 96.5981C149.41 96.4206 149.04 96.5019 148.862 96.7803C148.685 97.0593 148.766 97.4285 149.045 97.6055Z" fill="#613909"/>
<path class="leaf3"  fill-rule="evenodd" clip-rule="evenodd" d="M148.612 198.876C145.789 195.805 142.92 192.743 139.844 190.176C137.257 188.017 134.523 186.208 131.567 185.013C129.198 184.058 126.723 183.38 124.322 183.281C122.576 183.21 120.869 183.44 119.262 184.079C115.666 185.509 112.664 188.083 109.249 189.354C107.211 190.113 105.014 190.374 102.409 189.521C99.1755 188.463 96.364 186.595 93.8922 184.162C90.4415 180.766 87.6501 176.276 85.3078 171.315C83.8624 168.254 80.6531 164.353 78.5168 160.678C77.5538 159.021 76.8089 157.417 76.6008 155.963C76.1206 152.607 76.5775 149.72 77.5305 147.117C79.1708 142.642 82.2475 138.992 84.6041 135.261C85.0167 134.608 85.3426 133.899 85.6115 133.156C86.592 130.449 86.788 127.257 88.0981 124.772C88.6988 123.632 89.4262 122.6 90.2117 121.615C92.1156 119.232 94.3508 117.124 96.0206 114.525C96.1765 114.284 96.1073 113.962 95.8664 113.807C95.626 113.65 95.3043 113.719 95.1484 113.96C93.4807 116.518 91.253 118.584 89.3549 120.927C88.5186 121.959 87.7452 123.045 87.1028 124.243C85.7531 126.762 85.5127 130.002 84.4969 132.747C84.2528 133.407 83.9612 134.037 83.5898 134.616C81.1598 138.404 78.0155 142.114 76.3102 146.666C75.2663 149.451 74.7529 152.545 75.2415 156.152C75.4586 157.759 76.2415 159.547 77.2907 161.384C79.3768 165.037 82.5343 168.914 83.9422 171.954C86.33 177.11 89.1996 181.773 92.748 185.316C95.3878 187.952 98.4053 189.971 101.875 191.134C104.907 192.15 107.472 191.868 109.855 190.998C113.288 189.746 116.315 187.185 119.929 185.772C121.642 185.102 123.487 184.989 125.358 185.224C127.197 185.455 129.059 186.025 130.856 186.761C133.63 187.895 136.183 189.618 138.61 191.653C142.109 194.589 145.342 198.178 148.543 201.676C149.514 202.732 151.472 205.475 153.217 207.415C154.278 208.594 155.306 209.473 156.027 209.719C156.784 209.977 157.127 209.534 157.268 209.283C157.373 209.1 157.481 208.79 157.317 208.384C157.214 208.129 156.552 207.37 156.312 207.005L154.379 204.062L150.08 197.706C147.642 194.187 145.059 190.779 142.361 187.517C139.613 184.193 136.746 181.019 133.802 178.025C125.955 170.054 116.305 165.609 108.95 158.354C104.474 153.939 100.867 148.463 99.0862 140.44C98.6572 138.511 98.2959 136.589 98.0091 134.666C97.7201 132.726 97.5072 130.785 97.3778 128.829C97.2119 126.312 97.1474 123.835 97.2214 121.391C97.2969 118.893 97.5172 116.432 97.9208 114.006C97.9694 113.723 97.7787 113.454 97.4961 113.407C97.2135 113.358 96.9451 113.549 96.897 113.831C96.466 116.3 96.2224 118.808 96.1247 121.353C96.0296 123.832 96.0735 126.346 96.2208 128.901C96.335 130.889 96.5341 132.865 96.8109 134.839C97.0846 136.793 97.4343 138.746 97.8522 140.71C99.6282 149.048 103.327 154.759 107.931 159.379C115.211 166.684 124.81 171.198 132.576 179.222C135.464 182.201 138.271 185.36 140.968 188.662C143.612 191.901 146.148 195.279 148.539 198.768L148.612 198.876Z" fill="#613909"/>
<path class="leaf3"  fill-rule="evenodd" clip-rule="evenodd" d="M95.4537 113.691C94.2339 121.824 93.5239 131.569 95.3961 140.583C95.8938 142.978 96.58 145.321 97.4892 147.561C98.8669 150.956 100.761 154.107 103.223 156.895C105.435 159.378 107.791 161.431 110.248 163.206C114.133 166.013 118.262 168.12 122.444 170.138C122.7 170.267 123.012 170.163 123.141 169.907C123.269 169.651 123.165 169.338 122.909 169.21C119.514 167.449 116.155 165.632 112.956 163.402C109.968 161.319 107.123 158.873 104.52 155.773C102.248 153.09 100.567 150.056 99.2879 146.839C98.4337 144.693 97.7623 142.461 97.2425 140.18C95.2366 131.382 95.5414 121.835 96.4833 113.829C96.5214 113.544 96.3217 113.284 96.0375 113.245C95.7533 113.206 95.4918 113.407 95.4537 113.691Z" fill="#613909"/>
<path class="leaf3"  fill-rule="evenodd" clip-rule="evenodd" d="M97.7771 103.219C97.5621 104.711 97.2251 106.132 96.9435 107.572C96.8215 108.196 96.6994 108.819 96.6191 109.448C96.3476 111.571 96.2631 113.692 96.2081 115.869C96.1812 116.155 96.3904 116.409 96.6762 116.436C96.9615 116.463 97.215 116.254 97.2425 115.968C97.5494 114.187 97.9731 112.476 98.3392 110.738C98.4184 110.362 98.4961 109.988 98.5569 109.608C98.6176 109.226 98.6662 108.845 98.7005 108.459C98.8532 106.751 98.8654 105.041 98.8146 103.276C98.83 102.991 98.6107 102.745 98.3244 102.73C98.0381 102.713 97.793 102.933 97.7771 103.219Z" fill="#613909"/>
<path class="leaf3"  fill-rule="evenodd" clip-rule="evenodd" d="M98.0824 103.578C98.2272 105.801 98.3075 108.736 98.8965 111.381C99.3218 113.289 100.019 115.046 101.155 116.322C102.499 117.833 104.062 118.811 105.486 120.106C106.031 120.601 106.554 121.147 107.031 121.799C108.271 123.494 109.05 124.98 110.087 126.212C110.871 127.143 111.796 127.934 113.122 128.576C116.921 130.413 120.993 130.805 124.616 132.724C126.625 133.79 128.486 135.354 130.064 137.993C131.159 139.813 131.892 141.676 132.445 143.566C133.81 148.236 134.063 153.092 135.414 157.999C135.722 159.11 136.151 160.13 136.66 161.091C138.608 164.775 141.79 167.545 143.3 171.618C145.98 178.83 146.823 187.309 149.372 194.882C150.501 198.237 151.959 201.416 154.044 204.239C154.212 204.471 154.538 204.522 154.769 204.354C155.002 204.185 155.053 203.86 154.884 203.628C152.91 200.868 151.549 197.77 150.509 194.509C148.075 186.873 147.373 178.352 144.806 171.072C143.336 166.912 140.18 164.032 138.252 160.262C137.814 159.407 137.445 158.503 137.185 157.519C135.866 152.588 135.671 147.708 134.309 143.022C133.714 140.975 132.896 138.967 131.701 137.001C129.881 134.031 127.751 132.282 125.459 131.106C121.782 129.224 117.671 128.899 113.813 127.114C112.705 126.603 111.929 125.959 111.264 125.201C110.224 124.015 109.435 122.572 108.185 120.937C107.634 120.214 107.036 119.611 106.412 119.067C104.996 117.83 103.446 116.911 102.105 115.461C101.077 114.351 100.456 112.795 100.047 111.113C99.4221 108.538 99.3001 105.671 99.1184 103.5C99.0972 103.215 98.8474 103 98.5616 103.02C98.2758 103.042 98.0608 103.292 98.0824 103.578Z" fill="#613909"/>
<path class="leaf3"  fill-rule="evenodd" clip-rule="evenodd" d="M82.1138 138.616C82.864 137.847 83.64 137.126 84.4504 136.446C85.2761 135.753 86.125 135.096 86.9824 134.453C87.8477 133.802 88.7178 133.162 89.581 132.51C90.4468 131.856 91.3042 131.189 92.1368 130.478C93.5346 129.283 94.8621 127.971 96.0217 126.363C96.2039 126.086 96.1284 125.716 95.8537 125.533C95.5785 125.351 95.2071 125.427 95.0248 125.701C94.383 126.769 93.6777 127.735 92.8964 128.61C92.0755 129.531 91.189 130.36 90.2624 131.132C89.5551 131.724 88.824 132.279 88.0801 132.819C87.3321 133.36 86.5703 133.883 85.8091 134.409C85.0447 134.937 84.2808 135.465 83.5254 136.014C82.7689 136.565 82.0214 137.13 81.2976 137.743C81.0562 137.969 81.0435 138.347 81.2691 138.588C81.4942 138.83 81.8729 138.842 82.1138 138.616Z" fill="#613909"/>
<path class="leaf3"  fill-rule="evenodd" clip-rule="evenodd" d="M85.3881 171.291C84.948 170.392 84.4911 169.478 84.1149 168.533C83.8703 167.918 83.6601 167.291 83.5095 166.649C82.7758 163.417 83.2787 161.002 84.4472 159.059C85.2687 157.693 86.4066 156.558 87.647 155.536C89.5974 153.927 91.8008 152.594 93.4675 151.028C94.5658 150.015 95.4781 148.619 96.1955 147.051C96.8521 145.616 97.3419 144.038 97.6377 142.469C97.6905 142.143 97.4692 141.836 97.1432 141.783C96.8178 141.731 96.5104 141.951 96.457 142.277C96.252 143.773 95.8738 145.289 95.3133 146.67C94.7111 148.153 93.9081 149.481 92.9234 150.46C91.3 152.045 89.1594 153.431 87.2339 155.037C85.9428 156.114 84.7505 157.289 83.8645 158.7C82.566 160.769 81.9131 163.338 82.5972 166.842C82.7272 167.536 82.9242 168.217 83.1524 168.888C83.4889 169.875 83.8999 170.84 84.2993 171.786C84.4361 172.087 84.7911 172.219 85.0912 172.083C85.3918 171.946 85.5244 171.591 85.3881 171.291Z" fill="#613909"/>
<path class="leaf3"  fill-rule="evenodd" clip-rule="evenodd" d="M114.651 127.15C112.557 126.665 110.271 126.517 108.035 126.148C106.95 125.967 105.878 125.733 104.851 125.392C103.827 125.049 102.847 124.598 101.95 123.98C100.852 123.225 99.8754 122.216 99.0872 120.86C98.4544 119.771 97.962 118.45 97.6028 116.86C97.5183 116.54 97.1907 116.349 96.8716 116.435C96.5531 116.518 96.3624 116.846 96.4469 117.165C96.9567 118.835 97.606 120.193 98.3503 121.317C99.2827 122.726 100.369 123.76 101.572 124.545C102.534 125.172 103.565 125.64 104.641 126.01C105.694 126.373 106.789 126.643 107.896 126.878C109.203 127.155 110.526 127.382 111.814 127.654C112.682 127.837 113.528 128.049 114.343 128.305C114.662 128.39 114.989 128.199 115.074 127.881C115.16 127.562 114.97 127.233 114.651 127.15Z" fill="#613909"/>
<path class="leaf3"  fill-rule="evenodd" clip-rule="evenodd" d="M132.734 141.012C130.465 138.273 128.133 136.192 125.674 134.708C122.89 133.028 119.935 132.113 116.653 131.994C112.32 131.763 108.388 133.023 104.506 132.16C102.333 131.676 100.194 130.487 98.0054 127.989C97.783 127.745 97.4042 127.728 97.1607 127.95C96.9172 128.174 96.8997 128.552 97.1221 128.795C99.5966 131.394 101.969 132.544 104.333 132.999C108.285 133.757 112.234 132.482 116.624 132.642C119.775 132.809 122.62 133.702 125.247 135.393C127.577 136.893 129.72 139.023 131.798 141.755C132.002 142.014 132.379 142.057 132.637 141.851C132.896 141.646 132.939 141.27 132.734 141.012Z" fill="#613909"/>
<path class="leaf3"  fill-rule="evenodd" clip-rule="evenodd" d="M139.343 162.915C136.968 160.638 134.504 158.117 131.899 156.066C130.021 154.589 128.072 153.352 126.011 152.636C125.059 152.301 124.113 152.083 123.171 151.923C120.955 151.546 118.757 151.511 116.524 151.113C112.681 150.39 108.472 149.042 104.786 146.57C101.527 144.384 98.6921 141.313 96.8622 137.083C96.7269 136.783 96.3725 136.649 96.0719 136.784C95.7708 136.919 95.6366 137.274 95.7723 137.574C97.8168 141.938 100.886 145.038 104.341 147.248C108.166 149.698 112.468 151.059 116.409 151.748C118.64 152.159 120.841 152.199 123.053 152.598C123.955 152.76 124.858 152.985 125.766 153.318C127.733 154.048 129.588 155.271 131.354 156.739C133.88 158.839 136.223 161.432 138.5 163.764C138.735 163.997 139.114 163.995 139.346 163.761C139.578 163.527 139.576 163.147 139.343 162.915Z" fill="#613909"/>
<path class="leaf3"  fill-rule="evenodd" clip-rule="evenodd" d="M134.55 146.725C133.281 146.789 131.956 146.798 130.66 146.908C129.76 146.985 128.874 147.105 128.029 147.334C125.739 147.936 123.654 149.132 121.428 149.959C120.889 150.161 120.34 150.336 119.778 150.478C118.616 150.762 116.8 150.823 114.622 150.455C113.09 150.196 111.382 149.727 109.599 148.984C106.778 147.807 103.779 145.937 100.973 143.179C100.733 142.952 100.354 142.963 100.127 143.203C99.9008 143.443 99.9118 143.821 100.152 144.049C103.17 146.783 106.359 148.566 109.316 149.694C111.173 150.404 112.936 150.854 114.515 151.106C116.809 151.471 118.714 151.422 119.937 151.124C122.254 150.584 124.365 149.445 126.591 148.674C127.133 148.486 127.683 148.325 128.243 148.197C129.042 148.015 129.876 147.933 130.721 147.9C132.009 147.852 133.32 147.918 134.579 147.921C134.909 147.912 135.17 147.638 135.163 147.31C135.155 146.979 134.88 146.717 134.55 146.725Z" fill="#613909"/>
<path class="leaf3"  fill-rule="evenodd" clip-rule="evenodd" d="M147.101 179.523C145.263 176.2 143.111 174.257 140.788 173.043C138.338 171.763 135.684 171.315 132.962 170.981C131.215 170.767 129.444 170.58 127.692 170.26C126.272 169.987 124.747 169.44 123.23 168.722C121.077 167.703 118.947 166.348 117.118 165.027C116.846 164.84 116.473 164.91 116.287 165.181C116.1 165.454 116.169 165.826 116.441 166.013C118.378 167.276 120.634 168.541 122.88 169.5C124.486 170.185 126.084 170.72 127.569 170.959C129.336 171.261 131.124 171.402 132.882 171.622C135.513 171.952 138.086 172.421 140.414 173.733C142.555 174.94 144.464 176.887 146.041 180.078C146.194 180.37 146.556 180.483 146.848 180.33C147.141 180.177 147.254 179.816 147.101 179.523Z" fill="#613909"/>
<path class="leaf3"  fill-rule="evenodd" clip-rule="evenodd" d="M118.677 184.027C117.75 184.178 116.821 184.315 115.874 184.326C115.276 184.333 114.671 184.292 114.053 184.17C110.703 183.491 108.425 181.242 106.766 178.274C105.389 175.811 104.432 172.859 103.648 169.882C103.125 167.895 102.69 165.893 102.24 164.014C101.436 160.556 100.471 157.111 99.7222 153.637C99.224 151.328 98.8278 149.007 98.6118 146.667C98.5753 146.34 98.2795 146.103 97.9514 146.139C97.6234 146.175 97.3867 146.471 97.4231 146.798C97.729 149.17 98.2314 151.514 98.8072 153.848C99.6593 157.303 100.68 160.736 101.563 164.18C102.03 166.058 102.502 168.055 103.025 170.046C103.822 173.08 104.766 176.091 106.123 178.626C107.852 181.858 110.25 184.322 113.841 185.149C114.525 185.312 115.198 185.384 115.865 185.403C116.868 185.432 117.857 185.331 118.846 185.211C119.172 185.165 119.4 184.862 119.353 184.535C119.307 184.208 119.004 183.981 118.677 184.027Z" fill="#613909"/>
<path class="leaf3"  fill-rule="evenodd" clip-rule="evenodd" d="M104.77 190.439C103.203 187.197 102.329 184.125 101.856 181.062C101.402 178.114 101.3 175.181 101.254 172.136C101.224 170.192 101.23 168.201 101.168 166.13C101.106 163.176 100.843 160.124 100.444 157.07C100.05 154.049 99.522 151.029 98.8495 148.112C98.7692 147.791 98.4444 147.596 98.1242 147.677C97.8041 147.757 97.6092 148.082 97.6895 148.402C98.4628 151.26 99.1216 154.22 99.5981 157.193C100.081 160.205 100.379 163.227 100.5 166.151C100.567 168.217 100.584 170.204 100.598 172.144C100.621 175.222 100.673 178.184 101.05 181.175C101.449 184.342 102.198 187.541 103.684 190.939C103.822 191.239 104.177 191.37 104.477 191.232C104.777 191.094 104.908 190.739 104.77 190.439Z" fill="#613909"/>
<path class="leaf3"  fill-rule="evenodd" clip-rule="evenodd" d="M134.956 186.394C132.823 185.113 130.639 183.87 128.626 182.268C127.362 181.261 126.173 180.107 125.085 178.751C123.881 177.194 122.843 175.481 121.853 173.734C120.855 171.971 119.897 170.181 118.804 168.506C118.24 167.642 117.647 166.806 116.993 166.02C116.774 165.773 116.396 165.751 116.149 165.97C115.902 166.19 115.88 166.568 116.099 166.815C117.107 167.881 118.004 169.055 118.835 170.292C119.806 171.737 120.701 173.253 121.613 174.749C122.543 176.273 123.482 177.781 124.571 179.154C125.66 180.576 126.875 181.772 128.135 182.86C130.112 184.565 132.224 185.984 134.312 187.401C134.59 187.579 134.96 187.498 135.138 187.22C135.315 186.942 135.234 186.571 134.956 186.394Z" fill="#613909"/>
</svg>
