<svg id="svg2" width="360" height="383" viewBox="0 0 360 383" fill="none" xmlns="http://www.w3.org/2000/svg">
<path class="leaf1" fill-rule="evenodd" clip-rule="evenodd" d="M221.161 324.772C224.429 319.147 227.795 313.402 230.521 307.603C232.444 303.514 234.048 299.395 235.084 295.271C239.494 277.693 240.274 259.754 237.918 242.854C235.369 224.57 229.15 207.515 220.082 193.42C217.578 189.562 214.997 185.529 212.142 181.745C210.21 179.184 208.153 176.736 205.922 174.522C201.596 170.23 196.477 166.858 192.441 162.506C190.781 160.715 189.306 158.756 188.169 156.475C181.568 143.236 179.239 127.928 174.304 113.892C173.042 110.3 171.611 106.79 169.901 103.416C167.706 99.081 164.879 95.2548 161.645 91.75C158.47 88.3088 154.903 85.1752 151.164 82.1644C150.834 81.8961 150.348 81.9464 150.08 82.2768C149.812 82.6064 149.861 83.0925 150.192 83.3599C153.839 86.3555 157.317 89.4692 160.405 92.8822C163.495 96.3008 166.194 100.021 168.274 104.23C169.912 107.548 171.275 110.998 172.474 114.525C177.295 128.709 179.501 144.139 186.009 157.538C187.227 160.046 188.812 162.212 190.611 164.187C194.629 168.6 199.743 172.036 204.056 176.386C206.183 178.529 208.133 180.9 209.974 183.371C212.769 187.12 215.308 191.103 217.766 194.918C226.709 208.667 232.806 225.339 235.446 243.21C237.901 259.82 237.377 277.472 233.232 294.818C232.272 298.842 230.753 302.865 228.928 306.866C226.287 312.651 223.006 318.387 219.825 324.005C219.613 324.374 219.741 324.845 220.109 325.056C220.478 325.268 220.949 325.14 221.161 324.772Z" fill="#613909"/>
<path class="leaf1"  fill-rule="evenodd" clip-rule="evenodd" d="M148.08 82.522C154.454 84.8421 162.457 86.4951 169.057 89.3976C172.018 90.7005 174.69 92.2567 176.777 94.2606C182.893 100.136 185.55 108.408 190.757 114.955C192.092 116.633 193.589 118.201 195.337 119.599C201.605 124.61 210.701 126.355 217.947 130.137C219.726 131.064 221.388 132.122 222.85 133.403C224.421 134.778 225.573 136.429 226.546 138.197C229.019 142.688 230.414 147.901 233.714 151.883C236.792 155.588 241.899 157.625 245.943 160.504C247.532 161.637 248.944 162.91 249.911 164.552C250.904 166.235 251.342 168.128 251.557 170.114C252.093 175.091 251.303 180.607 252.785 185.298C254.805 191.66 259.982 195.949 262.969 201.754C263.637 203.052 264.188 204.433 264.544 205.945C265.503 209.987 266.155 214.41 266.284 218.969C266.404 223.261 266.06 227.673 265.069 231.994C264.052 236.44 261.771 240.513 260.289 244.962C259.911 246.096 259.582 247.253 259.334 248.444C258.37 253.079 258.409 257.611 257.574 262.233C257.244 264.059 256.775 265.899 256.036 267.767C254.519 271.603 252.437 274.972 250.068 278.118C244.398 285.648 237.119 291.925 231.854 300.136C231.623 300.492 231.725 300.97 232.081 301.201C232.437 301.432 232.915 301.33 233.146 300.973C238.47 292.843 245.784 286.66 251.506 279.211C254.006 275.958 256.204 272.466 257.825 268.485C258.633 266.499 259.157 264.541 259.528 262.596C260.407 258.003 260.408 253.492 261.416 248.887C261.658 247.781 261.975 246.708 262.338 245.656C263.889 241.15 266.232 237.026 267.312 232.52C268.39 228.009 268.793 223.4 268.709 218.912C268.621 214.177 267.986 209.576 267.029 205.368C266.634 203.643 266.022 202.064 265.272 200.58C262.395 194.891 257.308 190.709 255.376 184.485C253.961 179.952 254.816 174.624 254.306 169.818C254.053 167.433 253.487 165.169 252.293 163.147C251.5 161.805 250.473 160.656 249.295 159.634C247.195 157.81 244.598 156.389 242.07 154.912C239.722 153.539 237.43 152.123 235.781 150.158C232.564 146.327 231.239 141.263 228.813 136.937C227.681 134.918 226.327 133.05 224.512 131.489C222.888 130.092 221.053 128.936 219.083 127.933C211.923 124.281 202.933 122.716 196.719 117.851C194.248 115.92 192.308 113.617 190.603 111.153C186.395 105.071 183.55 98.0491 178.071 92.899C175.814 90.7797 172.945 89.131 169.762 87.7709C163.095 84.9235 155.033 83.3374 148.6 81.0718C148.199 80.9284 147.758 81.1366 147.615 81.5368C147.471 81.938 147.68 82.3786 148.08 82.522Z" fill="#613909"/>
<path class="leaf1"  fill-rule="evenodd" clip-rule="evenodd" d="M220.028 321.056C223.3 314.471 226.727 307.538 229.551 300.624C231.528 295.786 233.205 290.957 234.331 286.259C236.879 275.421 237.852 264.693 237.384 254.264C237.057 247.005 236.025 239.895 234.466 233C230.384 214.944 222.549 198.361 212.965 184.302C212.729 183.949 212.251 183.855 211.897 184.09C211.544 184.325 211.448 184.805 211.684 185.159C220.863 199.193 228.2 215.694 231.966 233.547C233.393 240.318 234.285 247.285 234.616 254.391C235.091 264.596 234.393 275.098 232.04 285.736C231.04 290.353 229.502 295.109 227.674 299.881C225.017 306.812 221.753 313.773 218.642 320.386C218.456 320.768 218.616 321.229 219 321.414C219.382 321.6 219.843 321.439 220.028 321.056Z" fill="#613909"/>
<path class="leaf1"  fill-rule="evenodd" clip-rule="evenodd" d="M146.799 80.769C148.218 85.8158 149.584 91.0675 150.548 96.4338C151.175 99.9274 151.63 103.47 151.818 107.035C151.92 108.951 152.252 111.146 152.255 113.346C152.258 114.672 152.137 116.001 151.75 117.261C149.684 123.967 142.659 130.525 139.686 137.181C138.114 140.7 137.619 144.244 139.193 147.833C140.579 150.989 142.323 153.896 144.291 156.646C151.942 167.34 163.042 175.615 168.541 187.712C169.988 190.875 169.739 194.534 169.296 198.239C168.818 202.242 168.092 206.3 168.515 209.946C168.765 212.091 169.4 214.101 170.642 215.903C172.006 217.884 173.761 219.765 175.883 221.244C177.895 222.647 180.234 223.692 182.876 224.136C185.568 224.587 189.19 224.025 192.148 224.374C193.294 224.51 194.331 224.774 195.08 225.435C196.59 226.768 197.286 228.49 197.634 230.38C198.54 235.293 197.358 241.238 199.354 245.707C199.954 247.052 200.893 248.108 202.055 248.982C203.956 250.409 206.483 251.331 208.883 252.389C211.033 253.337 213.092 254.381 214.283 256.239C214.633 256.785 214.71 257.538 214.703 258.365C214.684 260.509 214.012 263.085 213.895 264.848C213.709 267.664 213.686 270.46 213.768 273.227C213.853 276.033 214.043 278.81 214.278 281.551C214.718 286.702 216.813 291.218 218.946 295.676C221.024 300.019 223.141 304.305 223.591 309.139C223.919 312.668 223.35 316.488 221.227 320.842C221.039 321.223 221.196 321.685 221.577 321.873C221.958 322.061 222.42 321.905 222.609 321.524C224.93 316.877 225.559 312.78 225.243 308.993C224.82 303.952 222.691 299.455 220.569 294.909C218.574 290.634 216.584 286.316 216.212 281.396C216.009 278.689 215.849 275.947 215.795 273.178C215.742 270.474 215.792 267.746 216.002 264.998C216.138 263.202 216.838 260.58 216.879 258.395C216.904 257.091 216.689 255.924 216.146 255.059C214.746 252.825 212.368 251.463 209.813 250.307C207.59 249.301 205.232 248.452 203.476 247.108C202.646 246.472 201.96 245.717 201.536 244.744C200.626 242.654 200.511 240.217 200.487 237.736C200.463 235.085 200.554 232.383 200.124 229.933C199.692 227.472 198.745 225.256 196.794 223.507C195.683 222.511 194.175 221.999 192.462 221.785C189.551 221.419 185.977 221.962 183.328 221.499C181.1 221.11 179.136 220.21 177.443 219.018C175.602 217.722 174.083 216.08 172.901 214.352C171.924 212.924 171.451 211.326 171.257 209.63C170.862 206.182 171.588 202.349 172.035 198.564C172.535 194.339 172.682 190.176 171.022 186.572C165.354 174.353 154.11 165.995 146.256 155.227C144.358 152.626 142.662 149.881 141.311 146.89C139.977 143.933 140.441 141 141.711 138.072C144.635 131.327 151.604 124.61 153.611 117.823C154.04 116.374 154.173 114.852 154.154 113.333C154.127 111.099 153.77 108.873 153.646 106.928C153.412 103.292 152.906 99.6816 152.228 96.1225C151.196 90.7152 149.766 85.425 148.28 80.3445C148.163 79.9348 147.736 79.6985 147.327 79.8156C146.918 79.9328 146.682 80.3605 146.799 80.769Z" fill="#613909"/>
<path class="leaf1"  fill-rule="evenodd" clip-rule="evenodd" d="M210.31 253.524C213.588 254.855 217.508 255.746 220.948 257.125C222.452 257.727 223.856 258.434 225.069 259.289C226.345 260.208 227.39 261.294 228.211 262.525C229.047 263.779 229.657 265.179 230.083 266.667C230.693 268.802 230.923 271.124 230.88 273.503C230.839 275.789 230.523 278.121 230.085 280.405C230.001 280.952 230.375 281.464 230.921 281.548C231.468 281.632 231.982 281.258 232.066 280.711C232.348 278.308 232.467 275.865 232.37 273.487C232.269 270.98 231.923 268.553 231.209 266.325C230.702 264.744 230.015 263.265 229.111 261.922C228.214 260.589 227.111 259.386 225.737 258.373C224.482 257.428 223.013 256.656 221.454 255.943C218.102 254.409 214.293 253.222 211.123 251.691C210.617 251.467 210.024 251.695 209.8 252.2C209.576 252.706 209.803 253.299 210.31 253.524Z" fill="#613909"/>
<path class="leaf1"  fill-rule="evenodd" clip-rule="evenodd" d="M236.254 277.065C236.397 274.506 236.427 271.815 237.082 269.123C237.473 267.52 238.086 265.917 239.072 264.344C240.521 262.071 242.284 259.92 244.24 257.858C246.133 255.865 248.192 253.945 250.291 252.058C252.391 250.168 254.532 248.311 256.57 246.421C258.704 244.439 260.726 242.424 262.495 240.31C264.41 238.023 266.027 235.625 267.163 233.021C267.371 232.508 267.122 231.923 266.61 231.716C266.097 231.508 265.512 231.756 265.306 232.267C263.905 235.98 261.505 239.342 258.609 242.512C255.402 246.024 251.632 249.331 248.003 252.674C244.229 256.15 240.583 259.651 237.94 263.602C236.799 265.271 236.069 266.99 235.563 268.716C234.752 271.475 234.544 274.256 234.257 276.901C234.211 277.451 234.621 277.936 235.173 277.981C235.725 278.027 236.208 277.616 236.254 277.065Z" fill="#613909"/>
<path class="leaf1"  fill-rule="evenodd" clip-rule="evenodd" d="M240.149 264.539C243.604 260.645 247.278 255.489 250.8 249.843C252.374 247.319 253.92 244.703 255.395 242.05C256.873 239.389 258.28 236.693 259.572 234.026C261.428 230.196 263.038 226.425 264.264 222.883C265.819 218.399 266.764 214.287 266.808 210.894C266.803 210.341 266.348 209.896 265.795 209.902C265.242 209.908 264.797 210.361 264.803 210.914C264.931 214.839 263.873 219.846 261.959 225.261C260.404 229.654 258.314 234.318 255.878 238.891C253.52 243.319 250.834 247.663 248.062 251.634C244.948 256.096 241.691 260.06 238.678 263.178C238.302 263.584 238.327 264.219 238.734 264.594C239.139 264.97 239.774 264.945 240.149 264.539Z" fill="#613909"/>
<path class="leaf1"  fill-rule="evenodd" clip-rule="evenodd" d="M238.192 241.722C237.731 239.232 237.002 236.461 236.829 233.608C236.724 231.871 236.824 230.103 237.324 228.358C237.858 226.516 238.588 224.687 239.453 222.872C241.463 218.663 244.123 214.511 246.466 210.344C248.099 207.438 249.598 204.533 250.588 201.569C251.97 197.54 252.652 193.587 252.969 189.706C253.304 185.608 253.224 181.59 253.015 177.632C252.973 177.08 252.492 176.665 251.941 176.706C251.389 176.746 250.974 177.228 251.015 177.78C251.385 181.649 251.665 185.583 251.476 189.609C251.298 193.392 250.704 197.249 249.465 201.2C248.877 203.035 248.104 204.856 247.204 206.659C245.46 210.149 243.284 213.59 241.249 217.033C239.117 220.64 237.126 224.243 235.949 227.938C235.334 229.833 235.16 231.766 235.2 233.675C235.26 236.602 235.855 239.473 236.215 242.044C236.303 242.59 236.818 242.961 237.364 242.872C237.911 242.783 238.282 242.268 238.192 241.722Z" fill="#613909"/>
<path class="leaf1"  fill-rule="evenodd" clip-rule="evenodd" d="M231.544 145.867C232.553 150.951 234.148 156.317 234.835 161.865C235.268 165.37 235.328 168.947 234.678 172.558C234.352 174.316 233.705 176.072 232.902 177.82C231.048 181.86 228.425 185.87 227.197 189.923C225.79 194.413 225.065 198.912 224.836 203.305C224.59 208.007 224.919 212.586 225.713 216.91C225.824 217.453 226.354 217.803 226.896 217.692C227.437 217.583 227.788 217.052 227.677 216.51C226.744 212.35 226.217 207.924 226.315 203.359C226.404 199.071 227.044 194.667 228.313 190.259C229.688 185.657 232.847 181.091 234.67 176.509C235.166 175.266 235.571 174.023 235.818 172.775C236.571 169.054 236.563 165.355 236.22 161.714C235.694 156.116 234.34 150.66 233.517 145.514C233.42 144.97 232.898 144.607 232.354 144.705C231.81 144.802 231.446 145.323 231.544 145.867Z" fill="#613909"/>
<path class="leaf1"  fill-rule="evenodd" clip-rule="evenodd" d="M233.812 177.593C234.133 175.948 234.466 174.23 234.975 172.505C235.457 170.878 236.053 169.237 236.836 167.658C237.588 166.14 238.518 164.679 239.624 163.319C240.672 162.031 241.914 160.876 243.309 159.805C243.727 159.441 243.77 158.808 243.406 158.39C243.041 157.973 242.408 157.93 241.992 158.295C240.929 159.355 240.011 160.474 239.17 161.631C238.308 162.816 237.547 164.033 236.859 165.276C236.335 166.223 235.85 167.179 235.397 168.141C234.937 169.119 234.508 170.098 234.104 171.077C233.606 172.287 233.154 173.487 232.728 174.671C232.432 175.493 232.142 176.292 231.872 177.087C231.732 177.622 232.053 178.17 232.588 178.31C233.123 178.449 233.671 178.128 233.812 177.593Z" fill="#613909"/>
<path class="leaf1"  fill-rule="evenodd" clip-rule="evenodd" d="M217.795 191.812C216.105 185.988 214.53 180.632 214.034 174.828C213.727 171.227 213.85 167.457 214.56 163.308C215.138 160.132 216.002 156.755 216.879 153.342C218.205 148.179 219.502 142.926 219.66 138.062C219.791 134.022 219.147 130.25 217.149 126.981C216.849 126.516 216.229 126.38 215.764 126.679C215.298 126.978 215.164 127.598 215.462 128.064C218.024 131.879 218.455 136.601 217.954 141.628C217.538 145.818 216.482 150.213 215.435 154.494C214.712 157.453 213.974 160.355 213.477 163.113C212.671 167.356 212.514 171.218 212.724 174.921C213.057 180.836 214.375 186.345 215.859 192.333C216.002 192.866 216.552 193.184 217.087 193.039C217.621 192.897 217.938 192.346 217.795 191.812Z" fill="#613909"/>
<path class="leaf1"  fill-rule="evenodd" clip-rule="evenodd" d="M196.334 120.156C199.648 123.322 202.919 126.285 205.453 129.827C207.103 132.131 208.427 134.683 209.286 137.656C209.791 139.469 210.003 141.408 210.06 143.396C210.144 146.34 209.909 149.386 209.948 152.297C209.96 155.271 210.133 158.179 210.463 161.028C210.805 163.976 211.322 166.858 212.083 169.675C212.241 170.205 212.801 170.506 213.331 170.348C213.861 170.189 214.161 169.631 214.003 169.101C213.12 166.415 212.448 163.656 211.989 160.815C211.541 158.038 211.294 155.188 211.179 152.271C211.08 148.86 211.31 145.261 211.069 141.859C210.959 140.308 210.762 138.795 210.372 137.357C209.551 134.223 208.202 131.537 206.564 129.062C204.111 125.354 200.975 122.135 197.754 118.741C197.364 118.349 196.728 118.348 196.336 118.739C195.945 119.129 195.943 119.764 196.334 120.156Z" fill="#613909"/>
<path class="leaf1"  fill-rule="evenodd" clip-rule="evenodd" d="M186.169 108.708C187.02 110.881 187.964 113.138 188.435 115.557C188.726 117.046 188.838 118.594 188.642 120.215C187.992 125.194 185.554 130.159 184.356 135.17C184.042 136.481 183.802 137.795 183.706 139.116C183.389 142.938 183.848 146.63 184.675 150.202C185.954 155.735 188.164 160.975 190.107 165.871C190.322 166.381 190.911 166.62 191.42 166.405C191.929 166.19 192.169 165.602 191.954 165.092C189.831 160.352 187.361 155.304 185.931 149.891C185.025 146.464 184.554 142.895 184.79 139.195C184.931 137.309 185.36 135.434 185.934 133.571C187.292 129.16 189.382 124.813 190.058 120.416C190.346 118.641 190.284 116.934 190.039 115.281C189.663 112.74 188.825 110.333 188.053 108.025C187.865 107.504 187.29 107.235 186.769 107.424C186.25 107.612 185.98 108.188 186.169 108.708Z" fill="#613909"/>
<path class="leaf1"  fill-rule="evenodd" clip-rule="evenodd" d="M177.924 125.4C178.11 124.146 178.304 122.902 178.525 121.665C178.862 119.768 179.222 117.897 179.556 116.052C179.846 114.457 180.115 112.884 180.333 111.334C180.562 109.713 180.732 108.12 180.807 106.55C180.912 104.343 180.814 102.192 180.411 100.082C180.008 97.969 179.308 95.905 178.173 93.8822C177.881 93.4117 177.262 93.2676 176.792 93.5594C176.323 93.8514 176.178 94.4694 176.47 94.939C177.667 96.6877 178.502 98.5018 179.003 100.401C179.522 102.373 179.716 104.417 179.675 106.513C179.646 108.041 179.49 109.598 179.247 111.174C179.01 112.699 178.695 114.241 178.326 115.796C177.611 118.819 176.705 121.881 175.957 125.012C175.85 125.554 176.204 126.081 176.746 126.188C177.289 126.296 177.817 125.942 177.924 125.4Z" fill="#613909"/>
<path class="leaf1"  fill-rule="evenodd" clip-rule="evenodd" d="M164.455 86.8393C165.312 87.9215 166.01 89.0482 166.537 90.2571C167.082 91.5096 167.474 92.8214 167.762 94.1706C167.976 95.1799 168.133 96.2108 168.248 97.2557C168.363 98.2907 168.431 99.3396 168.497 100.396C168.549 101.239 168.598 102.083 168.646 102.933C168.717 104.217 168.792 105.497 168.94 106.785C169.041 107.33 169.564 107.69 170.108 107.589C170.653 107.488 171.012 106.964 170.911 106.42C170.607 105.24 170.345 104.06 170.141 102.869C169.933 101.651 169.768 100.435 169.609 99.2256C169.478 98.2373 169.35 97.2551 169.22 96.2825C169.02 94.7756 168.789 93.2959 168.46 91.8478C167.978 89.7133 167.291 87.6564 166.104 85.7C165.79 85.2453 165.165 85.1311 164.71 85.4457C164.255 85.7598 164.141 86.3846 164.455 86.8393Z" fill="#613909"/>
<path class="leaf1"  fill-rule="evenodd" clip-rule="evenodd" d="M148.538 92.2095C148.842 93.7854 149.192 95.6434 149.844 97.2719C150.33 98.4839 150.966 99.5768 151.881 100.352C152.691 101.052 153.648 101.619 154.674 102.128C156.842 103.208 159.339 104.007 161.396 105.098C163.399 106.232 165.186 107.586 166.679 109.182C168.19 110.798 169.379 112.658 170.276 114.695C170.52 115.19 171.121 115.396 171.618 115.151C172.114 114.907 172.319 114.306 172.075 113.81C170.919 111.691 169.435 109.82 167.685 108.177C166.003 106.598 164.088 105.218 161.921 104.12C159.871 103.006 157.357 102.218 155.216 101.077C154.306 100.591 153.473 100.03 152.774 99.3668C152.073 98.6901 151.624 97.7629 151.307 96.7512C150.816 95.1831 150.674 93.4126 150.522 91.9168C150.441 91.3695 149.931 90.9907 149.384 91.0711C148.837 91.1517 148.457 91.6621 148.538 92.2095Z" fill="#613909"/>
<path class="leaf1"  fill-rule="evenodd" clip-rule="evenodd" d="M152.168 115.975C153.351 117.382 154.569 118.627 155.955 119.701C157.303 120.743 158.799 121.633 160.597 122.314C163.667 123.536 167.265 124.121 170.396 125.331C171.748 125.855 173.001 126.511 174.084 127.361C175.53 128.521 176.63 129.849 177.492 131.32C178.8 133.554 179.553 136.101 180.261 138.811C180.419 139.341 180.979 139.642 181.509 139.483C182.038 139.324 182.34 138.765 182.181 138.236C181.232 135.438 180.206 132.842 178.694 130.569C177.666 129.025 176.429 127.618 174.802 126.426C173.616 125.536 172.243 124.882 170.788 124.318C167.67 123.112 164.126 122.384 161.097 121.099C159.486 120.38 158.149 119.502 156.981 118.464C155.765 117.385 154.744 116.131 153.751 114.746C153.411 114.309 152.782 114.229 152.345 114.569C151.908 114.908 151.828 115.539 152.168 115.975Z" fill="#613909"/>
<path class="leaf1"  fill-rule="evenodd" clip-rule="evenodd" d="M137.05 137.694C137.327 139.265 137.654 140.742 138.232 142.094C138.643 143.053 139.169 143.953 139.896 144.776C142.317 147.555 145.484 149.171 149.111 150.039C151.542 150.623 154.181 150.868 156.938 150.908C159.465 150.945 162.093 150.823 164.743 150.6C169.352 150.274 174.047 149.627 178.169 150.099C181.109 150.435 183.736 151.36 185.773 153.409C186.174 153.791 186.809 153.776 187.191 153.376C187.573 152.975 187.558 152.34 187.157 151.959C184.711 149.744 181.682 148.82 178.312 148.574C174.094 148.266 169.333 149.006 164.647 149.478C162.037 149.707 159.448 149.865 156.958 149.811C154.296 149.754 151.747 149.47 149.414 148.845C146.113 147.957 143.257 146.366 141.131 143.739C140.563 143.027 140.164 142.258 139.865 141.445C139.407 140.194 139.203 138.837 139.033 137.402C138.953 136.855 138.443 136.476 137.896 136.557C137.348 136.637 136.97 137.146 137.05 137.694Z" fill="#613909"/>
<path class="leaf1"  fill-rule="evenodd" clip-rule="evenodd" d="M147.2 125.824C146.877 128.954 147.002 131.846 147.543 134.463C148.167 137.485 149.349 140.132 151.09 142.351C153.13 144.95 155.932 146.947 159.504 148.244C161.493 148.966 163.715 149.492 166.184 149.753C170.131 150.221 174.71 149.503 178.759 149.836C180.511 149.98 182.152 150.341 183.576 151.101C184.071 151.347 184.673 151.144 184.919 150.649C185.165 150.153 184.963 149.551 184.467 149.305C182.781 148.529 180.876 148.221 178.855 148.155C174.799 148.024 170.259 148.883 166.3 148.572C163.28 148.293 160.623 147.641 158.358 146.606C155.724 145.404 153.618 143.706 152.06 141.609C150.212 139.124 149.145 136.062 148.86 132.578C148.695 130.549 148.818 128.379 149.188 126.086C149.26 125.538 148.874 125.034 148.325 124.961C147.777 124.889 147.273 125.275 147.2 125.824Z" fill="#613909"/>
<path class="leaf1"  fill-rule="evenodd" clip-rule="evenodd" d="M156.117 172.451C158.731 175.887 161.817 180.655 165.828 184.027C168.481 186.259 171.529 187.904 175.151 188.162C178.488 188.432 182.169 188.057 185.952 187.572C191.294 186.888 196.844 185.926 201.847 185.995C205.796 186.05 209.389 186.777 212.208 188.872C212.66 189.191 213.285 189.085 213.605 188.633C213.925 188.182 213.819 187.556 213.367 187.236C210.161 185.072 206.192 184.422 201.841 184.512C196.783 184.617 191.203 185.734 185.807 186.48C182.112 186.992 178.506 187.301 175.245 187.025C171.904 186.711 169.108 185.138 166.724 182.997C162.913 179.573 160.149 174.737 157.738 171.272C157.413 170.824 156.786 170.726 156.339 171.05C155.892 171.376 155.792 172.004 156.117 172.451Z" fill="#613909"/>
<path class="leaf1"  fill-rule="evenodd" clip-rule="evenodd" d="M155.997 167.85C158.974 170.075 162.204 172.405 165.627 174.614C167.807 176.023 170.065 177.381 172.398 178.614C174.72 179.84 177.114 180.942 179.577 181.856C181.224 182.468 182.897 183.007 184.606 183.426C186.53 183.909 188.512 184.213 190.522 184.452C195.046 184.992 199.725 185.14 204.26 185.791C204.81 185.857 205.308 185.463 205.373 184.913C205.438 184.365 205.045 183.866 204.496 183.801C199.914 183.375 195.212 183.511 190.652 183.144C188.689 182.986 186.756 182.722 184.872 182.302C183.203 181.916 181.558 181.433 179.953 180.841C177.537 179.949 175.2 178.841 172.95 177.594C170.102 176.013 167.393 174.208 164.835 172.326C162.131 170.338 159.609 168.253 157.238 166.277C156.804 165.934 156.173 166.008 155.83 166.443C155.488 166.877 155.563 167.508 155.997 167.85Z" fill="#613909"/>
<path class="leaf1"  fill-rule="evenodd" clip-rule="evenodd" d="M180.547 223.123C183.507 223.006 186.619 222.525 189.813 221.908C192.781 221.335 195.813 220.632 198.843 219.966C201.878 219.297 204.907 218.657 207.853 218.22C211.007 217.752 214.066 217.521 216.919 217.693C219.59 217.855 222.079 218.387 224.29 219.454C226.44 220.493 228.305 222.064 229.832 224.288C230.158 224.736 230.785 224.835 231.233 224.509C231.679 224.184 231.779 223.556 231.452 223.11C229.222 220.215 226.491 218.444 223.388 217.458C221.39 216.823 219.243 216.508 216.977 216.436C214.048 216.342 210.926 216.657 207.692 217.148C204.728 217.599 201.671 218.198 198.6 218.801C195.574 219.395 192.533 219.985 189.559 220.425C186.439 220.886 183.395 221.161 180.521 221.119C179.969 221.126 179.525 221.58 179.532 222.134C179.539 222.687 179.993 223.13 180.547 223.123Z" fill="#613909"/>
<path class="leaf1"  fill-rule="evenodd" clip-rule="evenodd" d="M170.155 197.8C172.977 201.098 176.685 203.395 181.025 204.76C184.821 205.954 189.101 206.454 193.699 206.223C197.766 206.063 202.029 205.161 206.017 205.173C207.777 205.179 209.481 205.375 211.082 205.887C215.05 207.184 219.355 209.2 222.668 211.887C224.997 213.774 226.821 215.997 227.651 218.508C227.836 219.028 228.41 219.301 228.932 219.115C229.453 218.93 229.725 218.356 229.54 217.835C228.479 215.061 226.345 212.648 223.651 210.627C220.105 207.969 215.596 205.969 211.437 204.745C209.718 204.227 207.896 204.058 206.016 204.065C202.017 204.078 197.736 204.929 193.656 205.076C189.222 205.187 185.102 204.647 181.488 203.373C177.519 201.974 174.182 199.69 171.706 196.529C171.356 196.102 170.724 196.039 170.296 196.389C169.868 196.74 169.805 197.372 170.155 197.8Z" fill="#613909"/>
<path class="leaf1"  fill-rule="evenodd" clip-rule="evenodd" d="M232.686 283.942C230.9 282.588 228.785 281.384 226.663 279.879C224.852 278.594 223.015 277.11 221.396 275.177C220.016 273.529 218.796 271.548 217.863 269.128C217.109 267.168 216.593 264.91 216.281 262.301C216.191 261.756 215.673 261.387 215.128 261.478C214.582 261.568 214.213 262.085 214.303 262.63C214.762 264.748 215.363 266.611 216.041 268.291C216.846 270.287 217.774 272.003 218.792 273.517C219.657 274.804 220.579 275.944 221.538 276.979C222.575 278.099 223.649 279.095 224.727 280.016C226.115 281.201 227.506 282.255 228.811 283.285C229.736 284.015 230.603 284.741 231.403 285.482C231.828 285.836 232.461 285.779 232.815 285.354C233.169 284.929 233.111 284.296 232.686 283.942Z" fill="#613909"/>
<path class="leaf1"  fill-rule="evenodd" clip-rule="evenodd" d="M257.141 263.749C255.722 265.589 254.166 267.289 252.495 268.879C250.8 270.491 249.011 272.003 247.204 273.48C245.741 274.678 244.267 275.854 242.815 277.036C240.581 278.854 238.416 280.704 236.455 282.744C234.788 284.477 233.258 286.326 231.972 288.421C231.701 288.904 231.873 289.515 232.356 289.786C232.838 290.056 233.449 289.884 233.72 289.402C234.506 287.852 235.412 286.409 236.443 285.058C237.493 283.681 238.653 282.395 239.891 281.172C241.332 279.747 242.869 278.399 244.461 277.097C246.044 275.803 247.681 274.553 249.307 273.287C250.941 272.014 252.568 270.732 254.139 269.381C255.726 268.017 257.261 266.596 258.678 265.036C259.033 264.611 258.978 263.979 258.554 263.624C258.129 263.269 257.496 263.325 257.141 263.749Z" fill="#613909"/>
<path class="leaf1"  fill-rule="evenodd" clip-rule="evenodd" d="M225.176 313.664C226.195 312.04 227.019 310.429 227.76 308.84C228.552 307.139 229.206 305.463 229.777 303.793C230.373 302.051 230.877 300.325 231.301 298.585C231.733 296.817 232.118 295.059 232.409 293.262C232.465 292.712 232.062 292.22 231.512 292.166C230.961 292.111 230.469 292.513 230.415 293.064C230.349 294.829 230.254 296.577 229.984 298.322C229.718 300.04 229.331 301.753 228.753 303.442C228.2 305.056 227.472 306.649 226.568 308.221C225.731 309.674 224.706 311.074 223.547 312.496C223.225 312.945 223.328 313.572 223.778 313.894C224.227 314.216 224.853 314.114 225.176 313.664Z" fill="#613909"/>
<path class="leaf1"  fill-rule="evenodd" clip-rule="evenodd" d="M235.242 272.798C235.277 267.294 235.675 260.733 234.668 254.997C233.922 250.74 232.416 246.923 229.366 244.274C227.501 242.622 225.338 241.456 223.04 240.51C217.867 238.381 211.953 237.493 207.193 235.106C204.33 233.671 201.922 231.655 200.42 228.422C200.176 227.927 199.574 227.722 199.078 227.967C198.581 228.211 198.377 228.812 198.622 229.308C200.471 232.857 203.261 234.994 206.53 236.49C211.407 238.721 217.386 239.463 222.626 241.538C224.818 242.406 226.868 243.53 228.642 245.094C231.446 247.615 232.806 251.21 233.39 255.202C234.22 260.879 233.489 267.328 233.238 272.745C233.223 273.298 233.66 273.759 234.214 273.774C234.766 273.788 235.227 273.351 235.242 272.798Z" fill="#613909"/>
</svg>
