<svg id="unplugged" width="1042" height="292" viewBox="0 0 1042 292" fill="none" xmlns="http://www.w3.org/2000/svg">
<path class="unplug" d="M22.9314 80.4144C22.9314 67.4931 21.4868 106.218 20.5133 119.103C17.7795 155.285 12.3364 194.892 19.17 230.869C20.9095 240.026 25.7346 266.082 37.9768 268.482C60.6969 272.937 81.5489 236.81 90.0984 222.271C109.674 188.981 118.383 156.322 118.577 118.028C118.615 110.634 119.886 67.2326 112.398 63.4883" stroke="#472BE6" stroke-width="30" stroke-linecap="round"/>
<path class="unplug"  d="M194.609 73.1606C200.221 116.649 197.027 161.572 197.027 205.345C197.027 214.022 194.732 226.918 198.505 235.302C203.73 246.914 205.096 232.324 206.699 227.914" stroke="#472BE6" stroke-width="30" stroke-linecap="round"/>
<path class="unplug"  d="M252.643 44.1442C256.476 40.7899 254.953 47.6437 255.061 50.0549C256.421 80.4304 262.295 111.768 267.419 141.671C273.869 179.314 280.43 218.372 293.211 254.511C295.649 261.405 298.416 271.269 303.421 276.274" stroke="#472BE6" stroke-width="30" stroke-linecap="round"/>
<path class="unplug"  d="M209.118 80.4147C206.187 74.7246 188.702 50.1867 199.714 70.7426C230.829 128.824 263.077 184.051 288.912 244.84" stroke="#472BE6" stroke-width="30" stroke-linecap="round"/>
<path class="unplug"  d="M380.798 15.1284C364.397 63.0688 367.591 118.543 370.185 168.404C371.524 194.138 375.603 216.598 385.634 240.004" stroke="#472BE6" stroke-width="30" stroke-linecap="round"/>
<path class="unplug"  d="M361.453 24.8004C380.674 24.8004 446.276 6.84546 451.726 30.9798C456.041 50.0928 420.937 71.9062 408.739 81.6237C397.617 90.4837 373.339 105.207 368.707 119.103" stroke="#472BE6" stroke-width="30" stroke-linecap="round"/>
<path class="unplug"  d="M492.026 77.9966C492.026 131.914 494.389 182.823 472.682 232.749" stroke="#472BE6" stroke-width="30" stroke-linecap="round"/>
<path class="unplug"  d="M475.1 232.75C520.079 240.246 565.197 235.168 610.508 235.168" stroke="#472BE6" stroke-width="30" stroke-linecap="round"/>
<path class="unplug"  d="M678.212 73.1606C670.021 98.7587 673.988 128.383 675.794 154.567C677.535 179.804 678.739 205.789 686.541 230.063C688.812 237.128 695.584 267.232 707.766 265.527C719.274 263.916 729.519 245.122 734.364 237.048C746.736 216.428 756.242 194.01 759.887 170.15C763.631 145.645 761.81 123.85 758.007 99.7588" stroke="#472BE6" stroke-width="30" stroke-linecap="round"/>
<path class="unplug"  d="M912.759 63.4884C912.524 55.9581 912.464 53.3327 904.968 53.8164C871.974 55.945 847.683 96.3119 834.039 121.386C826.51 135.225 811.407 161.442 822.218 177.538C833.385 194.165 862.301 197.77 880.25 197.285C906.014 196.589 935.585 190.266 959.239 179.822C975.164 172.79 971.856 159.909 973.209 145.701" stroke="#472BE6" stroke-width="30" stroke-linecap="round"/>
<path class="unplug"  d="M888.58 123.939C918.888 123.939 944.926 118.354 973.479 107.55C974.716 107.082 983.67 101.952 985.032 103.654C988.133 107.531 986.067 128.753 986.375 132.268C990.478 178.961 997.414 235.199 1026.41 273.856" stroke="#472BE6" stroke-width="30" stroke-linecap="round"/>
</svg>
